<?xml version="1.0" encoding="utf-8"?>
<svg xmlns="http://www.w3.org/2000/svg" width="100" height="100" style="zoom: 8">
  <image href="QR.png" width="100" height="100" />
  <circle cx="16.5" cy="22" r="0.5" fill="blue" />
  <circle cx="16.5" cy="78" r="0.5" fill="blue" />
  <circle cx="17.5" cy="22" r="0.5" fill="blue" />
  <circle cx="17.5" cy="78" r="0.5" fill="blue" />
  <circle cx="18.5" cy="22" r="0.5" fill="blue" />
  <circle cx="18.5" cy="78" r="0.5" fill="blue" />
  <circle cx="19.5" cy="22" r="0.5" fill="blue" />
  <circle cx="19.5" cy="78" r="0.5" fill="blue" />
  <circle cx="20.5" cy="22" r="0.5" fill="blue" />
  <circle cx="20.5" cy="50" r="0.5" fill="blue" />
  <circle cx="20.5" cy="78" r="0.5" fill="blue" />
  <circle cx="21.5" cy="22" r="0.5" fill="blue" />
  <circle cx="21.5" cy="50" r="0.5" fill="blue" />
  <circle cx="21.5" cy="78" r="0.5" fill="blue" />
  <circle cx="22.5" cy="22" r="0.5" fill="blue" />
  <circle cx="22.5" cy="50" r="0.5" fill="blue" />
  <circle cx="22.5" cy="78" r="0.5" fill="blue" />
  <circle cx="23.5" cy="22" r="0.5" fill="blue" />
  <circle cx="23.5" cy="50" r="0.5" fill="blue" />
  <circle cx="23.5" cy="78" r="0.5" fill="blue" />
  <circle cx="24.5" cy="22" r="0.5" fill="blue" />
  <circle cx="24.5" cy="78" r="0.5" fill="blue" />
  <circle cx="25.5" cy="22" r="0.5" fill="blue" />
  <circle cx="25.5" cy="78" r="0.5" fill="blue" />
  <circle cx="26.5" cy="22" r="0.5" fill="blue" />
  <circle cx="26.5" cy="78" r="0.5" fill="blue" />
  <circle cx="27.5" cy="22" r="0.5" fill="blue" />
  <circle cx="27.5" cy="78" r="0.5" fill="blue" />
  <circle cx="72.5" cy="22" r="0.5" fill="blue" />
  <circle cx="72.5" cy="70" r="0.5" fill="blue" />
  <circle cx="73.5" cy="22" r="0.5" fill="blue" />
  <circle cx="73.5" cy="70" r="0.5" fill="blue" />
  <circle cx="74.5" cy="22" r="0.5" fill="blue" />
  <circle cx="74.5" cy="70" r="0.5" fill="blue" />
  <circle cx="75.5" cy="22" r="0.5" fill="blue" />
  <circle cx="75.5" cy="70" r="0.5" fill="blue" />
  <circle cx="76.5" cy="22" r="0.5" fill="blue" />
  <circle cx="77.5" cy="22" r="0.5" fill="blue" />
  <circle cx="78.5" cy="22" r="0.5" fill="blue" />
  <circle cx="79.5" cy="22" r="0.5" fill="blue" />
  <circle cx="80.5" cy="22" r="0.5" fill="blue" />
  <circle cx="81.5" cy="22" r="0.5" fill="blue" />
  <circle cx="82.5" cy="22" r="0.5" fill="blue" />
  <circle cx="83.5" cy="22" r="0.5" fill="blue" />
  <circle cx="22" cy="16.5" r="0.5" fill="red" />
  <circle cx="78" cy="16.5" r="0.5" fill="red" />
  <circle cx="22" cy="17.5" r="0.5" fill="red" />
  <circle cx="78" cy="17.5" r="0.5" fill="red" />
  <circle cx="22" cy="18.5" r="0.5" fill="red" />
  <circle cx="78" cy="18.5" r="0.5" fill="red" />
  <circle cx="22" cy="19.5" r="0.5" fill="red" />
  <circle cx="78" cy="19.5" r="0.5" fill="red" />
  <circle cx="22" cy="20.5" r="0.5" fill="red" />
  <circle cx="46" cy="20.5" r="0.5" fill="red" />
  <circle cx="78" cy="20.5" r="0.5" fill="red" />
  <circle cx="22" cy="21.5" r="0.5" fill="red" />
  <circle cx="46" cy="21.5" r="0.5" fill="red" />
  <circle cx="78" cy="21.5" r="0.5" fill="red" />
  <circle cx="22" cy="22.5" r="0.5" fill="red" />
  <circle cx="46" cy="22.5" r="0.5" fill="red" />
  <circle cx="78" cy="22.5" r="0.5" fill="red" />
  <circle cx="22" cy="23.5" r="0.5" fill="red" />
  <circle cx="46" cy="23.5" r="0.5" fill="red" />
  <circle cx="78" cy="23.5" r="0.5" fill="red" />
  <circle cx="22" cy="24.5" r="0.5" fill="red" />
  <circle cx="78" cy="24.5" r="0.5" fill="red" />
  <circle cx="22" cy="25.5" r="0.5" fill="red" />
  <circle cx="78" cy="25.5" r="0.5" fill="red" />
  <circle cx="22" cy="26.5" r="0.5" fill="red" />
  <circle cx="78" cy="26.5" r="0.5" fill="red" />
  <circle cx="22" cy="27.5" r="0.5" fill="red" />
  <circle cx="78" cy="27.5" r="0.5" fill="red" />
  <circle cx="22" cy="72.5" r="0.5" fill="red" />
  <circle cx="22" cy="73.5" r="0.5" fill="red" />
  <circle cx="22" cy="74.5" r="0.5" fill="red" />
  <circle cx="22" cy="75.5" r="0.5" fill="red" />
  <circle cx="22" cy="76.5" r="0.5" fill="red" />
  <circle cx="22" cy="77.5" r="0.5" fill="red" />
  <circle cx="22" cy="78.5" r="0.5" fill="red" />
  <circle cx="22" cy="79.5" r="0.5" fill="red" />
  <circle cx="22" cy="80.5" r="0.5" fill="red" />
  <circle cx="22" cy="81.5" r="0.5" fill="red" />
  <circle cx="22" cy="82.5" r="0.5" fill="red" />
  <circle cx="22" cy="83.5" r="0.5" fill="red" />
  <rect x="36" y="32" width="4" height="4" stroke="red" fill="none" stroke-width="0.5" />
  <rect x="40" y="32" width="4" height="4" stroke="red" fill="none" stroke-width="0.5" />
  <rect x="44" y="32" width="4" height="4" stroke="red" fill="none" stroke-width="0.5" />
  <rect x="48" y="32" width="4" height="4" stroke="red" fill="none" stroke-width="0.5" />
  <rect x="52" y="32" width="4" height="4" stroke="red" fill="none" stroke-width="0.5" />
  <rect x="56" y="32" width="4" height="4" stroke="red" fill="none" stroke-width="0.5" />
  <rect x="60" y="32" width="4" height="4" stroke="red" fill="none" stroke-width="0.5" />
  <rect x="8" y="40" width="4" height="4" stroke="purple" fill="none" stroke-width="0.5" />
  <rect x="12" y="40" width="4" height="4" stroke="purple" fill="none" stroke-width="0.5" />
  <rect x="16" y="40" width="4" height="4" stroke="purple" fill="none" stroke-width="0.5" />
  <rect x="20" y="40" width="4" height="4" stroke="purple" fill="none" stroke-width="0.5" />
  <rect x="24" y="40" width="4" height="4" stroke="purple" fill="none" stroke-width="0.5" />
  <rect x="28" y="40" width="4" height="4" stroke="purple" fill="none" stroke-width="0.5" />
  <rect x="32" y="40" width="4" height="4" stroke="purple" fill="none" stroke-width="0.5" />
  <rect x="36" y="40" width="4" height="4" stroke="purple" fill="none" stroke-width="0.5" />
  <rect x="60" y="40" width="4" height="4" stroke="purple" fill="none" stroke-width="0.5" />
  <rect x="64" y="40" width="4" height="4" stroke="purple" fill="none" stroke-width="0.5" />
  <rect x="68" y="40" width="4" height="4" stroke="purple" fill="none" stroke-width="0.5" />
  <rect x="72" y="40" width="4" height="4" stroke="purple" fill="none" stroke-width="0.5" />
  <rect x="76" y="40" width="4" height="4" stroke="purple" fill="none" stroke-width="0.5" />
  <rect x="80" y="40" width="4" height="4" stroke="purple" fill="none" stroke-width="0.5" />
  <rect x="84" y="40" width="4" height="4" stroke="purple" fill="none" stroke-width="0.5" />
  <rect x="88" y="40" width="4" height="4" stroke="purple" fill="none" stroke-width="0.5" />
  <rect x="88" y="88" width="4" height="4" stroke="orange" fill="none" stroke-width="0.5" />
  <text x="89.5" y="90.5" font-size="2" stroke-width="0.1" fill="red">0</text>
  <rect x="84" y="88" width="4" height="4" stroke="orange" fill="none" stroke-width="0.5" />
  <text x="85.5" y="90.5" font-size="2" stroke-width="0.1" fill="red">1</text>
  <rect x="88" y="84" width="4" height="4" stroke="orange" fill="none" stroke-width="0.5" />
  <text x="89.5" y="86.5" font-size="2" stroke-width="0.1" fill="red">2</text>
  <rect x="84" y="84" width="4" height="4" stroke="orange" fill="none" stroke-width="0.5" />
  <text x="85.5" y="86.5" font-size="2" stroke-width="0.1" fill="red">3</text>
  <rect x="88" y="80" width="4" height="4" stroke="orange" fill="none" stroke-width="0.5" />
  <text x="89.5" y="82.5" font-size="2" stroke-width="0.1" fill="red">4</text>
  <rect x="84" y="80" width="4" height="4" stroke="orange" fill="none" stroke-width="0.5" />
  <text x="85.5" y="82.5" font-size="2" stroke-width="0.1" fill="red">5</text>
  <rect x="88" y="76" width="4" height="4" stroke="orange" fill="none" stroke-width="0.5" />
  <text x="89.5" y="78.5" font-size="2" stroke-width="0.1" fill="red">6</text>
  <rect x="84" y="76" width="4" height="4" stroke="orange" fill="none" stroke-width="0.5" />
  <text x="85.5" y="78.5" font-size="2" stroke-width="0.1" fill="red">7</text>
  <rect x="88" y="72" width="4" height="4" stroke="orange" fill="none" stroke-width="0.5" />
  <text x="89.5" y="74.5" font-size="2" stroke-width="0.1" fill="red">8</text>
  <rect x="84" y="72" width="4" height="4" stroke="orange" fill="none" stroke-width="0.5" />
  <text x="85.5" y="74.5" font-size="2" stroke-width="0.1" fill="red">9</text>
  <rect x="88" y="68" width="4" height="4" stroke="orange" fill="none" stroke-width="0.5" />
  <text x="89.5" y="70.5" font-size="2" stroke-width="0.1" fill="red">10</text>
  <rect x="84" y="68" width="4" height="4" stroke="orange" fill="none" stroke-width="0.5" />
  <text x="85.5" y="70.5" font-size="2" stroke-width="0.1" fill="red">11</text>
  <rect x="88" y="64" width="4" height="4" stroke="orange" fill="none" stroke-width="0.5" />
  <text x="89.5" y="66.5" font-size="2" stroke-width="0.1" fill="red">12</text>
  <rect x="84" y="64" width="4" height="4" stroke="orange" fill="none" stroke-width="0.5" />
  <text x="85.5" y="66.5" font-size="2" stroke-width="0.1" fill="red">13</text>
  <rect x="88" y="60" width="4" height="4" stroke="orange" fill="none" stroke-width="0.5" />
  <text x="89.5" y="62.5" font-size="2" stroke-width="0.1" fill="red">14</text>
  <rect x="84" y="60" width="4" height="4" stroke="orange" fill="none" stroke-width="0.5" />
  <text x="85.5" y="62.5" font-size="2" stroke-width="0.1" fill="red">15</text>
  <rect x="88" y="56" width="4" height="4" stroke="orange" fill="none" stroke-width="0.5" />
  <text x="89.5" y="58.5" font-size="2" stroke-width="0.1" fill="red">16</text>
  <rect x="84" y="56" width="4" height="4" stroke="orange" fill="none" stroke-width="0.5" />
  <text x="85.5" y="58.5" font-size="2" stroke-width="0.1" fill="red">17</text>
  <rect x="88" y="52" width="4" height="4" stroke="orange" fill="none" stroke-width="0.5" />
  <text x="89.5" y="54.5" font-size="2" stroke-width="0.1" fill="red">18</text>
  <rect x="84" y="52" width="4" height="4" stroke="orange" fill="none" stroke-width="0.5" />
  <text x="85.5" y="54.5" font-size="2" stroke-width="0.1" fill="red">19</text>
  <rect x="88" y="48" width="4" height="4" stroke="orange" fill="none" stroke-width="0.5" />
  <text x="89.5" y="50.5" font-size="2" stroke-width="0.1" fill="red">20</text>
  <rect x="84" y="48" width="4" height="4" stroke="orange" fill="none" stroke-width="0.5" />
  <text x="85.5" y="50.5" font-size="2" stroke-width="0.1" fill="red">21</text>
  <rect x="88" y="44" width="4" height="4" stroke="orange" fill="none" stroke-width="0.5" />
  <text x="89.5" y="46.5" font-size="2" stroke-width="0.1" fill="red">22</text>
  <rect x="84" y="44" width="4" height="4" stroke="orange" fill="none" stroke-width="0.5" />
  <text x="85.5" y="46.5" font-size="2" stroke-width="0.1" fill="red">23</text>
  <rect x="80" y="44" width="4" height="4" stroke="orange" fill="none" stroke-width="0.5" />
  <text x="81.5" y="46.5" font-size="2" stroke-width="0.1" fill="red">24</text>
  <rect x="76" y="44" width="4" height="4" stroke="orange" fill="none" stroke-width="0.5" />
  <text x="77.5" y="46.5" font-size="2" stroke-width="0.1" fill="red">25</text>
  <rect x="80" y="48" width="4" height="4" stroke="orange" fill="none" stroke-width="0.5" />
  <text x="81.5" y="50.5" font-size="2" stroke-width="0.1" fill="red">26</text>
  <rect x="76" y="48" width="4" height="4" stroke="orange" fill="none" stroke-width="0.5" />
  <text x="77.5" y="50.5" font-size="2" stroke-width="0.1" fill="red">27</text>
  <rect x="80" y="52" width="4" height="4" stroke="orange" fill="none" stroke-width="0.5" />
  <text x="81.5" y="54.5" font-size="2" stroke-width="0.1" fill="red">28</text>
  <rect x="76" y="52" width="4" height="4" stroke="orange" fill="none" stroke-width="0.5" />
  <text x="77.5" y="54.5" font-size="2" stroke-width="0.1" fill="red">29</text>
  <rect x="80" y="56" width="4" height="4" stroke="orange" fill="none" stroke-width="0.5" />
  <text x="81.5" y="58.5" font-size="2" stroke-width="0.1" fill="red">30</text>
  <rect x="76" y="56" width="4" height="4" stroke="orange" fill="none" stroke-width="0.5" />
  <text x="77.5" y="58.5" font-size="2" stroke-width="0.1" fill="red">31</text>
  <rect x="80" y="60" width="4" height="4" stroke="orange" fill="none" stroke-width="0.5" />
  <text x="81.5" y="62.5" font-size="2" stroke-width="0.1" fill="red">32</text>
  <rect x="76" y="60" width="4" height="4" stroke="orange" fill="none" stroke-width="0.5" />
  <text x="77.5" y="62.5" font-size="2" stroke-width="0.1" fill="red">33</text>
  <rect x="80" y="64" width="4" height="4" stroke="orange" fill="none" stroke-width="0.5" />
  <text x="81.5" y="66.5" font-size="2" stroke-width="0.1" fill="red">34</text>
  <rect x="76" y="64" width="4" height="4" stroke="orange" fill="none" stroke-width="0.5" />
  <text x="77.5" y="66.5" font-size="2" stroke-width="0.1" fill="red">35</text>
  <rect x="80" y="68" width="4" height="4" stroke="orange" fill="none" stroke-width="0.5" />
  <text x="81.5" y="70.5" font-size="2" stroke-width="0.1" fill="red">36</text>
  <rect x="76" y="68" width="4" height="4" stroke="orange" fill="none" stroke-width="0.5" />
  <text x="77.5" y="70.5" font-size="2" stroke-width="0.1" fill="red">37</text>
  <rect x="80" y="72" width="4" height="4" stroke="orange" fill="none" stroke-width="0.5" />
  <text x="81.5" y="74.5" font-size="2" stroke-width="0.1" fill="red">38</text>
  <rect x="76" y="72" width="4" height="4" stroke="orange" fill="none" stroke-width="0.5" />
  <text x="77.5" y="74.5" font-size="2" stroke-width="0.1" fill="red">39</text>
  <rect x="80" y="76" width="4" height="4" stroke="orange" fill="none" stroke-width="0.5" />
  <text x="81.5" y="78.5" font-size="2" stroke-width="0.1" fill="red">40</text>
  <rect x="76" y="76" width="4" height="4" stroke="orange" fill="none" stroke-width="0.5" />
  <text x="77.5" y="78.5" font-size="2" stroke-width="0.1" fill="red">41</text>
  <rect x="80" y="80" width="4" height="4" stroke="orange" fill="none" stroke-width="0.5" />
  <text x="81.5" y="82.5" font-size="2" stroke-width="0.1" fill="red">42</text>
  <rect x="76" y="80" width="4" height="4" stroke="orange" fill="none" stroke-width="0.5" />
  <text x="77.5" y="82.5" font-size="2" stroke-width="0.1" fill="red">43</text>
  <rect x="80" y="84" width="4" height="4" stroke="orange" fill="none" stroke-width="0.5" />
  <text x="81.5" y="86.5" font-size="2" stroke-width="0.1" fill="red">44</text>
  <rect x="76" y="84" width="4" height="4" stroke="orange" fill="none" stroke-width="0.5" />
  <text x="77.5" y="86.5" font-size="2" stroke-width="0.1" fill="red">45</text>
  <rect x="80" y="88" width="4" height="4" stroke="orange" fill="none" stroke-width="0.5" />
  <text x="81.5" y="90.5" font-size="2" stroke-width="0.1" fill="red">46</text>
  <rect x="76" y="88" width="4" height="4" stroke="orange" fill="none" stroke-width="0.5" />
  <text x="77.5" y="90.5" font-size="2" stroke-width="0.1" fill="red">47</text>
  <rect x="72" y="88" width="4" height="4" stroke="orange" fill="none" stroke-width="0.5" />
  <text x="73.5" y="90.5" font-size="2" stroke-width="0.1" fill="red">48</text>
  <rect x="68" y="88" width="4" height="4" stroke="orange" fill="none" stroke-width="0.5" />
  <text x="69.5" y="90.5" font-size="2" stroke-width="0.1" fill="red">49</text>
  <rect x="72" y="84" width="4" height="4" stroke="orange" fill="none" stroke-width="0.5" />
  <text x="73.5" y="86.5" font-size="2" stroke-width="0.1" fill="red">50</text>
  <rect x="68" y="84" width="4" height="4" stroke="orange" fill="none" stroke-width="0.5" />
  <text x="69.5" y="86.5" font-size="2" stroke-width="0.1" fill="red">51</text>
  <rect x="72" y="80" width="4" height="4" stroke="orange" fill="none" stroke-width="0.5" />
  <text x="73.5" y="82.5" font-size="2" stroke-width="0.1" fill="red">52</text>
  <rect x="68" y="80" width="4" height="4" stroke="orange" fill="none" stroke-width="0.5" />
  <text x="69.5" y="82.5" font-size="2" stroke-width="0.1" fill="red">53</text>
  <rect x="72" y="76" width="4" height="4" stroke="orange" fill="none" stroke-width="0.5" />
  <text x="73.5" y="78.5" font-size="2" stroke-width="0.1" fill="red">54</text>
  <rect x="68" y="76" width="4" height="4" stroke="orange" fill="none" stroke-width="0.5" />
  <text x="69.5" y="78.5" font-size="2" stroke-width="0.1" fill="red">55</text>
  <rect x="72" y="72" width="4" height="4" stroke="orange" fill="none" stroke-width="0.5" />
  <text x="73.5" y="74.5" font-size="2" stroke-width="0.1" fill="red">56</text>
  <rect x="68" y="72" width="4" height="4" stroke="orange" fill="none" stroke-width="0.5" />
  <text x="69.5" y="74.5" font-size="2" stroke-width="0.1" fill="red">57</text>
  <rect x="72" y="68" width="4" height="4" stroke="orange" fill="none" stroke-width="0.5" />
  <text x="73.5" y="70.5" font-size="2" stroke-width="0.1" fill="red">58</text>
  <rect x="68" y="68" width="4" height="4" stroke="orange" fill="none" stroke-width="0.5" />
  <text x="69.5" y="70.5" font-size="2" stroke-width="0.1" fill="red">59</text>
  <rect x="72" y="64" width="4" height="4" stroke="orange" fill="none" stroke-width="0.5" />
  <text x="73.5" y="66.5" font-size="2" stroke-width="0.1" fill="red">60</text>
  <rect x="68" y="64" width="4" height="4" stroke="orange" fill="none" stroke-width="0.5" />
  <text x="69.5" y="66.5" font-size="2" stroke-width="0.1" fill="red">61</text>
  <rect x="72" y="60" width="4" height="4" stroke="orange" fill="none" stroke-width="0.5" />
  <text x="73.5" y="62.5" font-size="2" stroke-width="0.1" fill="red">62</text>
  <rect x="68" y="60" width="4" height="4" stroke="orange" fill="none" stroke-width="0.5" />
  <text x="69.5" y="62.5" font-size="2" stroke-width="0.1" fill="red">63</text>
  <rect x="72" y="56" width="4" height="4" stroke="orange" fill="none" stroke-width="0.5" />
  <text x="73.5" y="58.5" font-size="2" stroke-width="0.1" fill="red">64</text>
  <rect x="68" y="56" width="4" height="4" stroke="orange" fill="none" stroke-width="0.5" />
  <text x="69.5" y="58.5" font-size="2" stroke-width="0.1" fill="red">65</text>
  <rect x="72" y="52" width="4" height="4" stroke="orange" fill="none" stroke-width="0.5" />
  <text x="73.5" y="54.5" font-size="2" stroke-width="0.1" fill="red">66</text>
  <rect x="68" y="52" width="4" height="4" stroke="orange" fill="none" stroke-width="0.5" />
  <text x="69.5" y="54.5" font-size="2" stroke-width="0.1" fill="red">67</text>
  <rect x="72" y="48" width="4" height="4" stroke="orange" fill="none" stroke-width="0.5" />
  <text x="73.5" y="50.5" font-size="2" stroke-width="0.1" fill="red">68</text>
  <rect x="68" y="48" width="4" height="4" stroke="orange" fill="none" stroke-width="0.5" />
  <text x="69.5" y="50.5" font-size="2" stroke-width="0.1" fill="red">69</text>
  <rect x="72" y="44" width="4" height="4" stroke="orange" fill="none" stroke-width="0.5" />
  <text x="73.5" y="46.5" font-size="2" stroke-width="0.1" fill="red">70</text>
  <rect x="68" y="44" width="4" height="4" stroke="orange" fill="none" stroke-width="0.5" />
  <text x="69.5" y="46.5" font-size="2" stroke-width="0.1" fill="red">71</text>
  <rect x="64" y="44" width="4" height="4" stroke="orange" fill="none" stroke-width="0.5" />
  <text x="65.5" y="46.5" font-size="2" stroke-width="0.1" fill="red">72</text>
  <rect x="60" y="44" width="4" height="4" stroke="orange" fill="none" stroke-width="0.5" />
  <text x="61.5" y="46.5" font-size="2" stroke-width="0.1" fill="red">73</text>
  <rect x="64" y="48" width="4" height="4" stroke="orange" fill="none" stroke-width="0.5" />
  <text x="65.5" y="50.5" font-size="2" stroke-width="0.1" fill="red">74</text>
  <rect x="60" y="48" width="4" height="4" stroke="orange" fill="none" stroke-width="0.5" />
  <text x="61.5" y="50.5" font-size="2" stroke-width="0.1" fill="red">75</text>
  <rect x="64" y="52" width="4" height="4" stroke="orange" fill="none" stroke-width="0.5" />
  <text x="65.5" y="54.5" font-size="2" stroke-width="0.1" fill="red">76</text>
  <rect x="60" y="52" width="4" height="4" stroke="orange" fill="none" stroke-width="0.5" />
  <text x="61.5" y="54.5" font-size="2" stroke-width="0.1" fill="red">77</text>
  <rect x="64" y="56" width="4" height="4" stroke="orange" fill="none" stroke-width="0.5" />
  <text x="65.5" y="58.5" font-size="2" stroke-width="0.1" fill="red">78</text>
  <rect x="60" y="56" width="4" height="4" stroke="orange" fill="none" stroke-width="0.5" />
  <text x="61.5" y="58.5" font-size="2" stroke-width="0.1" fill="red">79</text>
  <rect x="64" y="60" width="4" height="4" stroke="orange" fill="none" stroke-width="0.5" />
  <text x="65.5" y="62.5" font-size="2" stroke-width="0.1" fill="red">80</text>
  <rect x="60" y="60" width="4" height="4" stroke="orange" fill="none" stroke-width="0.5" />
  <text x="61.5" y="62.5" font-size="2" stroke-width="0.1" fill="red">81</text>
  <rect x="64" y="64" width="4" height="4" stroke="orange" fill="none" stroke-width="0.5" />
  <text x="65.5" y="66.5" font-size="2" stroke-width="0.1" fill="red">82</text>
  <rect x="60" y="64" width="4" height="4" stroke="orange" fill="none" stroke-width="0.5" />
  <text x="61.5" y="66.5" font-size="2" stroke-width="0.1" fill="red">83</text>
  <rect x="64" y="68" width="4" height="4" stroke="orange" fill="none" stroke-width="0.5" />
  <text x="65.5" y="70.5" font-size="2" stroke-width="0.1" fill="red">84</text>
  <rect x="60" y="68" width="4" height="4" stroke="orange" fill="none" stroke-width="0.5" />
  <text x="61.5" y="70.5" font-size="2" stroke-width="0.1" fill="red">85</text>
  <rect x="64" y="72" width="4" height="4" stroke="orange" fill="none" stroke-width="0.5" />
  <text x="65.5" y="74.5" font-size="2" stroke-width="0.1" fill="red">86</text>
  <rect x="60" y="72" width="4" height="4" stroke="orange" fill="none" stroke-width="0.5" />
  <text x="61.5" y="74.5" font-size="2" stroke-width="0.1" fill="red">87</text>
  <rect x="64" y="76" width="4" height="4" stroke="orange" fill="none" stroke-width="0.5" />
  <text x="65.5" y="78.5" font-size="2" stroke-width="0.1" fill="red">88</text>
  <rect x="60" y="76" width="4" height="4" stroke="orange" fill="none" stroke-width="0.5" />
  <text x="61.5" y="78.5" font-size="2" stroke-width="0.1" fill="red">89</text>
  <rect x="64" y="80" width="4" height="4" stroke="orange" fill="none" stroke-width="0.5" />
  <text x="65.5" y="82.5" font-size="2" stroke-width="0.1" fill="red">90</text>
  <rect x="60" y="80" width="4" height="4" stroke="orange" fill="none" stroke-width="0.5" />
  <text x="61.5" y="82.5" font-size="2" stroke-width="0.1" fill="red">91</text>
  <rect x="64" y="84" width="4" height="4" stroke="orange" fill="none" stroke-width="0.5" />
  <text x="65.5" y="86.5" font-size="2" stroke-width="0.1" fill="red">92</text>
  <rect x="60" y="84" width="4" height="4" stroke="orange" fill="none" stroke-width="0.5" />
  <text x="61.5" y="86.5" font-size="2" stroke-width="0.1" fill="red">93</text>
  <rect x="64" y="88" width="4" height="4" stroke="orange" fill="none" stroke-width="0.5" />
  <text x="65.5" y="90.5" font-size="2" stroke-width="0.1" fill="red">94</text>
  <rect x="60" y="88" width="4" height="4" stroke="orange" fill="none" stroke-width="0.5" />
  <text x="61.5" y="90.5" font-size="2" stroke-width="0.1" fill="red">95</text>
  <rect x="56" y="88" width="4" height="4" stroke="orange" fill="none" stroke-width="0.5" />
  <text x="57.5" y="90.5" font-size="2" stroke-width="0.1" fill="red">96</text>
  <rect x="52" y="88" width="4" height="4" stroke="orange" fill="none" stroke-width="0.5" />
  <text x="53.5" y="90.5" font-size="2" stroke-width="0.1" fill="red">97</text>
  <rect x="56" y="84" width="4" height="4" stroke="orange" fill="none" stroke-width="0.5" />
  <text x="57.5" y="86.5" font-size="2" stroke-width="0.1" fill="red">98</text>
  <rect x="52" y="84" width="4" height="4" stroke="orange" fill="none" stroke-width="0.5" />
  <text x="53.5" y="86.5" font-size="2" stroke-width="0.1" fill="red">99</text>
</svg>