<?xml version="1.0" encoding="utf-8"?>
<svg xmlns="http://www.w3.org/2000/svg" width="100" height="100" style="zoom: 2">
  <image href="QR.gif" width="100" height="100" />
  <circle cx="16.5" cy="22" r="0.5" fill="blue" />
  <circle cx="16.5" cy="78" r="0.5" fill="blue" />
  <circle cx="17.5" cy="22" r="0.5" fill="blue" />
  <circle cx="17.5" cy="78" r="0.5" fill="blue" />
  <circle cx="18.5" cy="22" r="0.5" fill="blue" />
  <circle cx="18.5" cy="78" r="0.5" fill="blue" />
  <circle cx="19.5" cy="22" r="0.5" fill="blue" />
  <circle cx="19.5" cy="78" r="0.5" fill="blue" />
  <circle cx="20.5" cy="22" r="0.5" fill="blue" />
  <circle cx="20.5" cy="50" r="0.5" fill="blue" />
  <circle cx="20.5" cy="78" r="0.5" fill="blue" />
  <circle cx="21.5" cy="22" r="0.5" fill="blue" />
  <circle cx="21.5" cy="50" r="0.5" fill="blue" />
  <circle cx="21.5" cy="78" r="0.5" fill="blue" />
  <circle cx="22.5" cy="22" r="0.5" fill="blue" />
  <circle cx="22.5" cy="50" r="0.5" fill="blue" />
  <circle cx="22.5" cy="78" r="0.5" fill="blue" />
  <circle cx="23.5" cy="22" r="0.5" fill="blue" />
  <circle cx="23.5" cy="50" r="0.5" fill="blue" />
  <circle cx="23.5" cy="78" r="0.5" fill="blue" />
  <circle cx="24.5" cy="22" r="0.5" fill="blue" />
  <circle cx="24.5" cy="78" r="0.5" fill="blue" />
  <circle cx="25.5" cy="22" r="0.5" fill="blue" />
  <circle cx="25.5" cy="78" r="0.5" fill="blue" />
  <circle cx="26.5" cy="22" r="0.5" fill="blue" />
  <circle cx="26.5" cy="78" r="0.5" fill="blue" />
  <circle cx="27.5" cy="22" r="0.5" fill="blue" />
  <circle cx="27.5" cy="78" r="0.5" fill="blue" />
  <circle cx="72.5" cy="22" r="0.5" fill="blue" />
  <circle cx="72.5" cy="70" r="0.5" fill="blue" />
  <circle cx="73.5" cy="22" r="0.5" fill="blue" />
  <circle cx="73.5" cy="70" r="0.5" fill="blue" />
  <circle cx="74.5" cy="22" r="0.5" fill="blue" />
  <circle cx="74.5" cy="70" r="0.5" fill="blue" />
  <circle cx="75.5" cy="22" r="0.5" fill="blue" />
  <circle cx="75.5" cy="70" r="0.5" fill="blue" />
  <circle cx="76.5" cy="22" r="0.5" fill="blue" />
  <circle cx="77.5" cy="22" r="0.5" fill="blue" />
  <circle cx="78.5" cy="22" r="0.5" fill="blue" />
  <circle cx="79.5" cy="22" r="0.5" fill="blue" />
  <circle cx="80.5" cy="22" r="0.5" fill="blue" />
  <circle cx="81.5" cy="22" r="0.5" fill="blue" />
  <circle cx="82.5" cy="22" r="0.5" fill="blue" />
  <circle cx="83.5" cy="22" r="0.5" fill="blue" />
  <circle cx="22" cy="16.5" r="0.5" fill="red" />
  <circle cx="78" cy="16.5" r="0.5" fill="red" />
  <circle cx="22" cy="17.5" r="0.5" fill="red" />
  <circle cx="78" cy="17.5" r="0.5" fill="red" />
  <circle cx="22" cy="18.5" r="0.5" fill="red" />
  <circle cx="78" cy="18.5" r="0.5" fill="red" />
  <circle cx="22" cy="19.5" r="0.5" fill="red" />
  <circle cx="78" cy="19.5" r="0.5" fill="red" />
  <circle cx="22" cy="20.5" r="0.5" fill="red" />
  <circle cx="46" cy="20.5" r="0.5" fill="red" />
  <circle cx="78" cy="20.5" r="0.5" fill="red" />
  <circle cx="22" cy="21.5" r="0.5" fill="red" />
  <circle cx="46" cy="21.5" r="0.5" fill="red" />
  <circle cx="78" cy="21.5" r="0.5" fill="red" />
  <circle cx="22" cy="22.5" r="0.5" fill="red" />
  <circle cx="46" cy="22.5" r="0.5" fill="red" />
  <circle cx="78" cy="22.5" r="0.5" fill="red" />
  <circle cx="22" cy="23.5" r="0.5" fill="red" />
  <circle cx="46" cy="23.5" r="0.5" fill="red" />
  <circle cx="78" cy="23.5" r="0.5" fill="red" />
  <circle cx="22" cy="24.5" r="0.5" fill="red" />
  <circle cx="78" cy="24.5" r="0.5" fill="red" />
  <circle cx="22" cy="25.5" r="0.5" fill="red" />
  <circle cx="78" cy="25.5" r="0.5" fill="red" />
  <circle cx="22" cy="26.5" r="0.5" fill="red" />
  <circle cx="78" cy="26.5" r="0.5" fill="red" />
  <circle cx="22" cy="27.5" r="0.5" fill="red" />
  <circle cx="78" cy="27.5" r="0.5" fill="red" />
  <circle cx="22" cy="72.5" r="0.5" fill="red" />
  <circle cx="22" cy="73.5" r="0.5" fill="red" />
  <circle cx="22" cy="74.5" r="0.5" fill="red" />
  <circle cx="22" cy="75.5" r="0.5" fill="red" />
  <circle cx="22" cy="76.5" r="0.5" fill="red" />
  <circle cx="22" cy="77.5" r="0.5" fill="red" />
  <circle cx="22" cy="78.5" r="0.5" fill="red" />
  <circle cx="22" cy="79.5" r="0.5" fill="red" />
  <circle cx="22" cy="80.5" r="0.5" fill="red" />
  <circle cx="22" cy="81.5" r="0.5" fill="red" />
  <circle cx="22" cy="82.5" r="0.5" fill="red" />
  <circle cx="22" cy="83.5" r="0.5" fill="red" />
  <rect x="8" y="8" width="28" height="28" stroke="yellow" fill="none" stroke-width="0.5" />
  <rect x="64" y="8" width="28" height="28" stroke="yellow" fill="none" stroke-width="0.5" />
  <rect x="8" y="64" width="28" height="28" stroke="yellow" fill="none" stroke-width="0.5" />
  <rect x="8" y="8" width="84" height="84" stroke="gray" fill="none" stroke-width="0.5" />
  <rect x="36" y="32" width="4" height="4" stroke="red" fill="none" stroke-width="0.5" />
  <rect x="40" y="32" width="4" height="4" stroke="red" fill="none" stroke-width="0.5" />
  <rect x="44" y="32" width="4" height="4" stroke="red" fill="none" stroke-width="0.5" />
  <rect x="48" y="32" width="4" height="4" stroke="red" fill="none" stroke-width="0.5" />
  <rect x="52" y="32" width="4" height="4" stroke="red" fill="none" stroke-width="0.5" />
  <rect x="56" y="32" width="4" height="4" stroke="red" fill="none" stroke-width="0.5" />
  <rect x="60" y="32" width="4" height="4" stroke="red" fill="none" stroke-width="0.5" />
  <rect x="32" y="36" width="4" height="4" stroke="red" fill="none" stroke-width="0.5" />
  <rect x="32" y="40" width="4" height="4" stroke="red" fill="none" stroke-width="0.5" />
  <rect x="32" y="44" width="4" height="4" stroke="red" fill="none" stroke-width="0.5" />
  <rect x="32" y="48" width="4" height="4" stroke="red" fill="none" stroke-width="0.5" />
  <rect x="32" y="52" width="4" height="4" stroke="red" fill="none" stroke-width="0.5" />
  <rect x="32" y="56" width="4" height="4" stroke="red" fill="none" stroke-width="0.5" />
  <rect x="32" y="60" width="4" height="4" stroke="red" fill="none" stroke-width="0.5" />
  <rect x="8" y="40" width="4" height="4" stroke="purple" fill="none" stroke-width="0.5" />
  <rect x="12" y="40" width="4" height="4" stroke="purple" fill="none" stroke-width="0.5" />
  <rect x="16" y="40" width="4" height="4" stroke="purple" fill="none" stroke-width="0.5" />
  <rect x="20" y="40" width="4" height="4" stroke="purple" fill="none" stroke-width="0.5" />
  <rect x="24" y="40" width="4" height="4" stroke="purple" fill="none" stroke-width="0.5" />
  <rect x="28" y="40" width="4" height="4" stroke="purple" fill="none" stroke-width="0.5" />
  <rect x="36" y="40" width="4" height="4" stroke="purple" fill="none" stroke-width="0.5" />
  <rect x="60" y="40" width="4" height="4" stroke="purple" fill="none" stroke-width="0.5" />
  <rect x="64" y="40" width="4" height="4" stroke="purple" fill="none" stroke-width="0.5" />
  <rect x="68" y="40" width="4" height="4" stroke="purple" fill="none" stroke-width="0.5" />
  <rect x="72" y="40" width="4" height="4" stroke="purple" fill="none" stroke-width="0.5" />
  <rect x="76" y="40" width="4" height="4" stroke="purple" fill="none" stroke-width="0.5" />
  <rect x="80" y="40" width="4" height="4" stroke="purple" fill="none" stroke-width="0.5" />
  <rect x="84" y="40" width="4" height="4" stroke="purple" fill="none" stroke-width="0.5" />
  <rect x="88" y="40" width="4" height="4" stroke="purple" fill="none" stroke-width="0.5" />
  <rect x="40" y="88" width="4" height="4" stroke="purple" fill="none" stroke-width="0.5" />
  <rect x="40" y="84" width="4" height="4" stroke="purple" fill="none" stroke-width="0.5" />
  <rect x="40" y="80" width="4" height="4" stroke="purple" fill="none" stroke-width="0.5" />
  <rect x="40" y="76" width="4" height="4" stroke="purple" fill="none" stroke-width="0.5" />
  <rect x="40" y="72" width="4" height="4" stroke="purple" fill="none" stroke-width="0.5" />
  <rect x="40" y="68" width="4" height="4" stroke="purple" fill="none" stroke-width="0.5" />
  <rect x="40" y="64" width="4" height="4" stroke="purple" fill="none" stroke-width="0.5" />
  <rect x="40" y="40" width="4" height="4" stroke="purple" fill="none" stroke-width="0.5" />
  <rect x="40" y="36" width="4" height="4" stroke="purple" fill="none" stroke-width="0.5" />
  <rect x="40" y="28" width="4" height="4" stroke="purple" fill="none" stroke-width="0.5" />
  <rect x="40" y="24" width="4" height="4" stroke="purple" fill="none" stroke-width="0.5" />
  <rect x="40" y="20" width="4" height="4" stroke="purple" fill="none" stroke-width="0.5" />
  <rect x="40" y="16" width="4" height="4" stroke="purple" fill="none" stroke-width="0.5" />
  <rect x="40" y="12" width="4" height="4" stroke="purple" fill="none" stroke-width="0.5" />
  <rect x="40" y="8" width="4" height="4" stroke="purple" fill="none" stroke-width="0.5" />
  <rect x="88" y="88" width="4" height="4" stroke="orange" fill="none" stroke-width="0.5" />
  <text x="89.5" y="90.5" font-size="2" stroke-width="0.5" fill="red">0</text>
  <rect x="84" y="88" width="4" height="4" stroke="orange" fill="none" stroke-width="0.5" />
  <text x="85.5" y="90.5" font-size="2" stroke-width="0.5" fill="red">1</text>
  <rect x="88" y="84" width="4" height="4" stroke="orange" fill="none" stroke-width="0.5" />
  <text x="89.5" y="86.5" font-size="2" stroke-width="0.5" fill="red">2</text>
  <rect x="84" y="84" width="4" height="4" stroke="orange" fill="none" stroke-width="0.5" />
  <text x="85.5" y="86.5" font-size="2" stroke-width="0.5" fill="red">3</text>
  <rect x="88" y="80" width="4" height="4" stroke="orange" fill="none" stroke-width="0.5" />
  <text x="89.5" y="82.5" font-size="2" stroke-width="0.5" fill="red">4</text>
  <rect x="84" y="80" width="4" height="4" stroke="orange" fill="none" stroke-width="0.5" />
  <text x="85.5" y="82.5" font-size="2" stroke-width="0.5" fill="red">5</text>
  <rect x="88" y="76" width="4" height="4" stroke="orange" fill="none" stroke-width="0.5" />
  <text x="89.5" y="78.5" font-size="2" stroke-width="0.5" fill="red">6</text>
  <rect x="84" y="76" width="4" height="4" stroke="orange" fill="none" stroke-width="0.5" />
  <text x="85.5" y="78.5" font-size="2" stroke-width="0.5" fill="red">7</text>
  <rect x="88" y="72" width="4" height="4" stroke="orange" fill="none" stroke-width="0.5" />
  <text x="89.5" y="74.5" font-size="2" stroke-width="0.5" fill="red">8</text>
  <rect x="84" y="72" width="4" height="4" stroke="orange" fill="none" stroke-width="0.5" />
  <text x="85.5" y="74.5" font-size="2" stroke-width="0.5" fill="red">9</text>
  <rect x="88" y="68" width="4" height="4" stroke="orange" fill="none" stroke-width="0.5" />
  <text x="89.5" y="70.5" font-size="2" stroke-width="0.5" fill="red">10</text>
  <rect x="84" y="68" width="4" height="4" stroke="orange" fill="none" stroke-width="0.5" />
  <text x="85.5" y="70.5" font-size="2" stroke-width="0.5" fill="red">11</text>
  <rect x="88" y="64" width="4" height="4" stroke="orange" fill="none" stroke-width="0.5" />
  <text x="89.5" y="66.5" font-size="2" stroke-width="0.5" fill="red">12</text>
  <rect x="84" y="64" width="4" height="4" stroke="orange" fill="none" stroke-width="0.5" />
  <text x="85.5" y="66.5" font-size="2" stroke-width="0.5" fill="red">13</text>
  <rect x="88" y="60" width="4" height="4" stroke="orange" fill="none" stroke-width="0.5" />
  <text x="89.5" y="62.5" font-size="2" stroke-width="0.5" fill="red">14</text>
  <rect x="84" y="60" width="4" height="4" stroke="orange" fill="none" stroke-width="0.5" />
  <text x="85.5" y="62.5" font-size="2" stroke-width="0.5" fill="red">15</text>
  <rect x="88" y="56" width="4" height="4" stroke="orange" fill="none" stroke-width="0.5" />
  <text x="89.5" y="58.5" font-size="2" stroke-width="0.5" fill="red">16</text>
  <rect x="84" y="56" width="4" height="4" stroke="orange" fill="none" stroke-width="0.5" />
  <text x="85.5" y="58.5" font-size="2" stroke-width="0.5" fill="red">17</text>
  <rect x="88" y="52" width="4" height="4" stroke="orange" fill="none" stroke-width="0.5" />
  <text x="89.5" y="54.5" font-size="2" stroke-width="0.5" fill="red">18</text>
  <rect x="84" y="52" width="4" height="4" stroke="orange" fill="none" stroke-width="0.5" />
  <text x="85.5" y="54.5" font-size="2" stroke-width="0.5" fill="red">19</text>
  <rect x="88" y="48" width="4" height="4" stroke="orange" fill="none" stroke-width="0.5" />
  <text x="89.5" y="50.5" font-size="2" stroke-width="0.5" fill="red">20</text>
  <rect x="84" y="48" width="4" height="4" stroke="orange" fill="none" stroke-width="0.5" />
  <text x="85.5" y="50.5" font-size="2" stroke-width="0.5" fill="red">21</text>
  <rect x="88" y="44" width="4" height="4" stroke="orange" fill="none" stroke-width="0.5" />
  <text x="89.5" y="46.5" font-size="2" stroke-width="0.5" fill="red">22</text>
  <rect x="84" y="44" width="4" height="4" stroke="orange" fill="none" stroke-width="0.5" />
  <text x="85.5" y="46.5" font-size="2" stroke-width="0.5" fill="red">23</text>
  <rect x="80" y="44" width="4" height="4" stroke="orange" fill="none" stroke-width="0.5" />
  <text x="81.5" y="46.5" font-size="2" stroke-width="0.5" fill="red">24</text>
  <rect x="76" y="44" width="4" height="4" stroke="orange" fill="none" stroke-width="0.5" />
  <text x="77.5" y="46.5" font-size="2" stroke-width="0.5" fill="red">25</text>
  <rect x="80" y="48" width="4" height="4" stroke="orange" fill="none" stroke-width="0.5" />
  <text x="81.5" y="50.5" font-size="2" stroke-width="0.5" fill="red">26</text>
  <rect x="76" y="48" width="4" height="4" stroke="orange" fill="none" stroke-width="0.5" />
  <text x="77.5" y="50.5" font-size="2" stroke-width="0.5" fill="red">27</text>
  <rect x="80" y="52" width="4" height="4" stroke="orange" fill="none" stroke-width="0.5" />
  <text x="81.5" y="54.5" font-size="2" stroke-width="0.5" fill="red">28</text>
  <rect x="76" y="52" width="4" height="4" stroke="orange" fill="none" stroke-width="0.5" />
  <text x="77.5" y="54.5" font-size="2" stroke-width="0.5" fill="red">29</text>
  <rect x="80" y="56" width="4" height="4" stroke="orange" fill="none" stroke-width="0.5" />
  <text x="81.5" y="58.5" font-size="2" stroke-width="0.5" fill="red">30</text>
  <rect x="76" y="56" width="4" height="4" stroke="orange" fill="none" stroke-width="0.5" />
  <text x="77.5" y="58.5" font-size="2" stroke-width="0.5" fill="red">31</text>
  <rect x="80" y="60" width="4" height="4" stroke="orange" fill="none" stroke-width="0.5" />
  <text x="81.5" y="62.5" font-size="2" stroke-width="0.5" fill="red">32</text>
  <rect x="76" y="60" width="4" height="4" stroke="orange" fill="none" stroke-width="0.5" />
  <text x="77.5" y="62.5" font-size="2" stroke-width="0.5" fill="red">33</text>
  <rect x="80" y="64" width="4" height="4" stroke="orange" fill="none" stroke-width="0.5" />
  <text x="81.5" y="66.5" font-size="2" stroke-width="0.5" fill="red">34</text>
  <rect x="76" y="64" width="4" height="4" stroke="orange" fill="none" stroke-width="0.5" />
  <text x="77.5" y="66.5" font-size="2" stroke-width="0.5" fill="red">35</text>
  <rect x="80" y="68" width="4" height="4" stroke="orange" fill="none" stroke-width="0.5" />
  <text x="81.5" y="70.5" font-size="2" stroke-width="0.5" fill="red">36</text>
  <rect x="76" y="68" width="4" height="4" stroke="orange" fill="none" stroke-width="0.5" />
  <text x="77.5" y="70.5" font-size="2" stroke-width="0.5" fill="red">37</text>
  <rect x="80" y="72" width="4" height="4" stroke="orange" fill="none" stroke-width="0.5" />
  <text x="81.5" y="74.5" font-size="2" stroke-width="0.5" fill="red">38</text>
  <rect x="76" y="72" width="4" height="4" stroke="orange" fill="none" stroke-width="0.5" />
  <text x="77.5" y="74.5" font-size="2" stroke-width="0.5" fill="red">39</text>
  <rect x="80" y="76" width="4" height="4" stroke="orange" fill="none" stroke-width="0.5" />
  <text x="81.5" y="78.5" font-size="2" stroke-width="0.5" fill="red">40</text>
  <rect x="76" y="76" width="4" height="4" stroke="orange" fill="none" stroke-width="0.5" />
  <text x="77.5" y="78.5" font-size="2" stroke-width="0.5" fill="red">41</text>
  <rect x="80" y="80" width="4" height="4" stroke="orange" fill="none" stroke-width="0.5" />
  <text x="81.5" y="82.5" font-size="2" stroke-width="0.5" fill="red">42</text>
  <rect x="76" y="80" width="4" height="4" stroke="orange" fill="none" stroke-width="0.5" />
  <text x="77.5" y="82.5" font-size="2" stroke-width="0.5" fill="red">43</text>
  <rect x="80" y="84" width="4" height="4" stroke="orange" fill="none" stroke-width="0.5" />
  <text x="81.5" y="86.5" font-size="2" stroke-width="0.5" fill="red">44</text>
  <rect x="76" y="84" width="4" height="4" stroke="orange" fill="none" stroke-width="0.5" />
  <text x="77.5" y="86.5" font-size="2" stroke-width="0.5" fill="red">45</text>
  <rect x="80" y="88" width="4" height="4" stroke="orange" fill="none" stroke-width="0.5" />
  <text x="81.5" y="90.5" font-size="2" stroke-width="0.5" fill="red">46</text>
  <rect x="76" y="88" width="4" height="4" stroke="orange" fill="none" stroke-width="0.5" />
  <text x="77.5" y="90.5" font-size="2" stroke-width="0.5" fill="red">47</text>
  <rect x="72" y="88" width="4" height="4" stroke="orange" fill="none" stroke-width="0.5" />
  <text x="73.5" y="90.5" font-size="2" stroke-width="0.5" fill="red">48</text>
  <rect x="68" y="88" width="4" height="4" stroke="orange" fill="none" stroke-width="0.5" />
  <text x="69.5" y="90.5" font-size="2" stroke-width="0.5" fill="red">49</text>
  <rect x="72" y="84" width="4" height="4" stroke="orange" fill="none" stroke-width="0.5" />
  <text x="73.5" y="86.5" font-size="2" stroke-width="0.5" fill="red">50</text>
  <rect x="68" y="84" width="4" height="4" stroke="orange" fill="none" stroke-width="0.5" />
  <text x="69.5" y="86.5" font-size="2" stroke-width="0.5" fill="red">51</text>
  <rect x="72" y="80" width="4" height="4" stroke="orange" fill="none" stroke-width="0.5" />
  <text x="73.5" y="82.5" font-size="2" stroke-width="0.5" fill="red">52</text>
  <rect x="68" y="80" width="4" height="4" stroke="orange" fill="none" stroke-width="0.5" />
  <text x="69.5" y="82.5" font-size="2" stroke-width="0.5" fill="red">53</text>
  <rect x="72" y="76" width="4" height="4" stroke="orange" fill="none" stroke-width="0.5" />
  <text x="73.5" y="78.5" font-size="2" stroke-width="0.5" fill="red">54</text>
  <rect x="68" y="76" width="4" height="4" stroke="orange" fill="none" stroke-width="0.5" />
  <text x="69.5" y="78.5" font-size="2" stroke-width="0.5" fill="red">55</text>
  <rect x="72" y="72" width="4" height="4" stroke="orange" fill="none" stroke-width="0.5" />
  <text x="73.5" y="74.5" font-size="2" stroke-width="0.5" fill="red">56</text>
  <rect x="68" y="72" width="4" height="4" stroke="orange" fill="none" stroke-width="0.5" />
  <text x="69.5" y="74.5" font-size="2" stroke-width="0.5" fill="red">57</text>
  <rect x="72" y="68" width="4" height="4" stroke="orange" fill="none" stroke-width="0.5" />
  <text x="73.5" y="70.5" font-size="2" stroke-width="0.5" fill="red">58</text>
  <rect x="68" y="68" width="4" height="4" stroke="orange" fill="none" stroke-width="0.5" />
  <text x="69.5" y="70.5" font-size="2" stroke-width="0.5" fill="red">59</text>
  <rect x="72" y="64" width="4" height="4" stroke="orange" fill="none" stroke-width="0.5" />
  <text x="73.5" y="66.5" font-size="2" stroke-width="0.5" fill="red">60</text>
  <rect x="68" y="64" width="4" height="4" stroke="orange" fill="none" stroke-width="0.5" />
  <text x="69.5" y="66.5" font-size="2" stroke-width="0.5" fill="red">61</text>
  <rect x="72" y="60" width="4" height="4" stroke="orange" fill="none" stroke-width="0.5" />
  <text x="73.5" y="62.5" font-size="2" stroke-width="0.5" fill="red">62</text>
  <rect x="68" y="60" width="4" height="4" stroke="orange" fill="none" stroke-width="0.5" />
  <text x="69.5" y="62.5" font-size="2" stroke-width="0.5" fill="red">63</text>
  <rect x="72" y="56" width="4" height="4" stroke="orange" fill="none" stroke-width="0.5" />
  <text x="73.5" y="58.5" font-size="2" stroke-width="0.5" fill="red">64</text>
  <rect x="68" y="56" width="4" height="4" stroke="orange" fill="none" stroke-width="0.5" />
  <text x="69.5" y="58.5" font-size="2" stroke-width="0.5" fill="red">65</text>
  <rect x="72" y="52" width="4" height="4" stroke="orange" fill="none" stroke-width="0.5" />
  <text x="73.5" y="54.5" font-size="2" stroke-width="0.5" fill="red">66</text>
  <rect x="68" y="52" width="4" height="4" stroke="orange" fill="none" stroke-width="0.5" />
  <text x="69.5" y="54.5" font-size="2" stroke-width="0.5" fill="red">67</text>
  <rect x="72" y="48" width="4" height="4" stroke="orange" fill="none" stroke-width="0.5" />
  <text x="73.5" y="50.5" font-size="2" stroke-width="0.5" fill="red">68</text>
  <rect x="68" y="48" width="4" height="4" stroke="orange" fill="none" stroke-width="0.5" />
  <text x="69.5" y="50.5" font-size="2" stroke-width="0.5" fill="red">69</text>
  <rect x="72" y="44" width="4" height="4" stroke="orange" fill="none" stroke-width="0.5" />
  <text x="73.5" y="46.5" font-size="2" stroke-width="0.5" fill="red">70</text>
  <rect x="68" y="44" width="4" height="4" stroke="orange" fill="none" stroke-width="0.5" />
  <text x="69.5" y="46.5" font-size="2" stroke-width="0.5" fill="red">71</text>
  <rect x="64" y="44" width="4" height="4" stroke="orange" fill="none" stroke-width="0.5" />
  <text x="65.5" y="46.5" font-size="2" stroke-width="0.5" fill="red">72</text>
  <rect x="60" y="44" width="4" height="4" stroke="orange" fill="none" stroke-width="0.5" />
  <text x="61.5" y="46.5" font-size="2" stroke-width="0.5" fill="red">73</text>
  <rect x="64" y="48" width="4" height="4" stroke="orange" fill="none" stroke-width="0.5" />
  <text x="65.5" y="50.5" font-size="2" stroke-width="0.5" fill="red">74</text>
  <rect x="60" y="48" width="4" height="4" stroke="orange" fill="none" stroke-width="0.5" />
  <text x="61.5" y="50.5" font-size="2" stroke-width="0.5" fill="red">75</text>
  <rect x="64" y="52" width="4" height="4" stroke="orange" fill="none" stroke-width="0.5" />
  <text x="65.5" y="54.5" font-size="2" stroke-width="0.5" fill="red">76</text>
  <rect x="60" y="52" width="4" height="4" stroke="orange" fill="none" stroke-width="0.5" />
  <text x="61.5" y="54.5" font-size="2" stroke-width="0.5" fill="red">77</text>
  <rect x="64" y="56" width="4" height="4" stroke="orange" fill="none" stroke-width="0.5" />
  <text x="65.5" y="58.5" font-size="2" stroke-width="0.5" fill="red">78</text>
  <rect x="60" y="56" width="4" height="4" stroke="orange" fill="none" stroke-width="0.5" />
  <text x="61.5" y="58.5" font-size="2" stroke-width="0.5" fill="red">79</text>
  <rect x="64" y="60" width="4" height="4" stroke="orange" fill="none" stroke-width="0.5" />
  <text x="65.5" y="62.5" font-size="2" stroke-width="0.5" fill="red">80</text>
  <rect x="60" y="60" width="4" height="4" stroke="orange" fill="none" stroke-width="0.5" />
  <text x="61.5" y="62.5" font-size="2" stroke-width="0.5" fill="red">81</text>
  <rect x="64" y="64" width="4" height="4" stroke="orange" fill="none" stroke-width="0.5" />
  <text x="65.5" y="66.5" font-size="2" stroke-width="0.5" fill="red">82</text>
  <rect x="60" y="64" width="4" height="4" stroke="orange" fill="none" stroke-width="0.5" />
  <text x="61.5" y="66.5" font-size="2" stroke-width="0.5" fill="red">83</text>
  <rect x="64" y="68" width="4" height="4" stroke="orange" fill="none" stroke-width="0.5" />
  <text x="65.5" y="70.5" font-size="2" stroke-width="0.5" fill="red">84</text>
  <rect x="60" y="68" width="4" height="4" stroke="orange" fill="none" stroke-width="0.5" />
  <text x="61.5" y="70.5" font-size="2" stroke-width="0.5" fill="red">85</text>
  <rect x="64" y="72" width="4" height="4" stroke="orange" fill="none" stroke-width="0.5" />
  <text x="65.5" y="74.5" font-size="2" stroke-width="0.5" fill="red">86</text>
  <rect x="60" y="72" width="4" height="4" stroke="orange" fill="none" stroke-width="0.5" />
  <text x="61.5" y="74.5" font-size="2" stroke-width="0.5" fill="red">87</text>
  <rect x="64" y="76" width="4" height="4" stroke="orange" fill="none" stroke-width="0.5" />
  <text x="65.5" y="78.5" font-size="2" stroke-width="0.5" fill="red">88</text>
  <rect x="60" y="76" width="4" height="4" stroke="orange" fill="none" stroke-width="0.5" />
  <text x="61.5" y="78.5" font-size="2" stroke-width="0.5" fill="red">89</text>
  <rect x="64" y="80" width="4" height="4" stroke="orange" fill="none" stroke-width="0.5" />
  <text x="65.5" y="82.5" font-size="2" stroke-width="0.5" fill="red">90</text>
  <rect x="60" y="80" width="4" height="4" stroke="orange" fill="none" stroke-width="0.5" />
  <text x="61.5" y="82.5" font-size="2" stroke-width="0.5" fill="red">91</text>
  <rect x="64" y="84" width="4" height="4" stroke="orange" fill="none" stroke-width="0.5" />
  <text x="65.5" y="86.5" font-size="2" stroke-width="0.5" fill="red">92</text>
  <rect x="60" y="84" width="4" height="4" stroke="orange" fill="none" stroke-width="0.5" />
  <text x="61.5" y="86.5" font-size="2" stroke-width="0.5" fill="red">93</text>
  <rect x="64" y="88" width="4" height="4" stroke="orange" fill="none" stroke-width="0.5" />
  <text x="65.5" y="90.5" font-size="2" stroke-width="0.5" fill="red">94</text>
  <rect x="60" y="88" width="4" height="4" stroke="orange" fill="none" stroke-width="0.5" />
  <text x="61.5" y="90.5" font-size="2" stroke-width="0.5" fill="red">95</text>
  <rect x="56" y="88" width="4" height="4" stroke="orange" fill="none" stroke-width="0.5" />
  <text x="57.5" y="90.5" font-size="2" stroke-width="0.5" fill="red">96</text>
  <rect x="52" y="88" width="4" height="4" stroke="orange" fill="none" stroke-width="0.5" />
  <text x="53.5" y="90.5" font-size="2" stroke-width="0.5" fill="red">97</text>
  <rect x="56" y="84" width="4" height="4" stroke="orange" fill="none" stroke-width="0.5" />
  <text x="57.5" y="86.5" font-size="2" stroke-width="0.5" fill="red">98</text>
  <rect x="52" y="84" width="4" height="4" stroke="orange" fill="none" stroke-width="0.5" />
  <text x="53.5" y="86.5" font-size="2" stroke-width="0.5" fill="red">99</text>
  <rect x="56" y="80" width="4" height="4" stroke="orange" fill="none" stroke-width="0.5" />
  <text x="57.5" y="82.5" font-size="2" stroke-width="0.5" fill="red">100</text>
  <rect x="52" y="80" width="4" height="4" stroke="orange" fill="none" stroke-width="0.5" />
  <text x="53.5" y="82.5" font-size="2" stroke-width="0.5" fill="red">101</text>
  <rect x="56" y="76" width="4" height="4" stroke="orange" fill="none" stroke-width="0.5" />
  <text x="57.5" y="78.5" font-size="2" stroke-width="0.5" fill="red">102</text>
  <rect x="52" y="76" width="4" height="4" stroke="orange" fill="none" stroke-width="0.5" />
  <text x="53.5" y="78.5" font-size="2" stroke-width="0.5" fill="red">103</text>
  <rect x="56" y="72" width="4" height="4" stroke="orange" fill="none" stroke-width="0.5" />
  <text x="57.5" y="74.5" font-size="2" stroke-width="0.5" fill="red">104</text>
  <rect x="52" y="72" width="4" height="4" stroke="orange" fill="none" stroke-width="0.5" />
  <text x="53.5" y="74.5" font-size="2" stroke-width="0.5" fill="red">105</text>
  <rect x="56" y="68" width="4" height="4" stroke="orange" fill="none" stroke-width="0.5" />
  <text x="57.5" y="70.5" font-size="2" stroke-width="0.5" fill="red">106</text>
  <rect x="52" y="68" width="4" height="4" stroke="orange" fill="none" stroke-width="0.5" />
  <text x="53.5" y="70.5" font-size="2" stroke-width="0.5" fill="red">107</text>
  <rect x="56" y="64" width="4" height="4" stroke="orange" fill="none" stroke-width="0.5" />
  <text x="57.5" y="66.5" font-size="2" stroke-width="0.5" fill="red">108</text>
  <rect x="52" y="64" width="4" height="4" stroke="orange" fill="none" stroke-width="0.5" />
  <text x="53.5" y="66.5" font-size="2" stroke-width="0.5" fill="red">109</text>
  <rect x="56" y="60" width="4" height="4" stroke="orange" fill="none" stroke-width="0.5" />
  <text x="57.5" y="62.5" font-size="2" stroke-width="0.5" fill="red">110</text>
  <rect x="52" y="60" width="4" height="4" stroke="orange" fill="none" stroke-width="0.5" />
  <text x="53.5" y="62.5" font-size="2" stroke-width="0.5" fill="red">111</text>
  <rect x="56" y="56" width="4" height="4" stroke="orange" fill="none" stroke-width="0.5" />
  <text x="57.5" y="58.5" font-size="2" stroke-width="0.5" fill="red">112</text>
  <rect x="52" y="56" width="4" height="4" stroke="orange" fill="none" stroke-width="0.5" />
  <text x="53.5" y="58.5" font-size="2" stroke-width="0.5" fill="red">113</text>
  <rect x="56" y="52" width="4" height="4" stroke="orange" fill="none" stroke-width="0.5" />
  <text x="57.5" y="54.5" font-size="2" stroke-width="0.5" fill="red">114</text>
  <rect x="52" y="52" width="4" height="4" stroke="orange" fill="none" stroke-width="0.5" />
  <text x="53.5" y="54.5" font-size="2" stroke-width="0.5" fill="red">115</text>
  <rect x="56" y="48" width="4" height="4" stroke="orange" fill="none" stroke-width="0.5" />
  <text x="57.5" y="50.5" font-size="2" stroke-width="0.5" fill="red">116</text>
  <rect x="52" y="48" width="4" height="4" stroke="orange" fill="none" stroke-width="0.5" />
  <text x="53.5" y="50.5" font-size="2" stroke-width="0.5" fill="red">117</text>
  <rect x="56" y="44" width="4" height="4" stroke="orange" fill="none" stroke-width="0.5" />
  <text x="57.5" y="46.5" font-size="2" stroke-width="0.5" fill="red">118</text>
  <rect x="52" y="44" width="4" height="4" stroke="orange" fill="none" stroke-width="0.5" />
  <text x="53.5" y="46.5" font-size="2" stroke-width="0.5" fill="red">119</text>
  <rect x="56" y="40" width="4" height="4" stroke="orange" fill="none" stroke-width="0.5" />
  <text x="57.5" y="42.5" font-size="2" stroke-width="0.5" fill="red">120</text>
  <rect x="52" y="40" width="4" height="4" stroke="orange" fill="none" stroke-width="0.5" />
  <text x="53.5" y="42.5" font-size="2" stroke-width="0.5" fill="red">121</text>
  <rect x="56" y="36" width="4" height="4" stroke="orange" fill="none" stroke-width="0.5" />
  <text x="57.5" y="38.5" font-size="2" stroke-width="0.5" fill="red">122</text>
  <rect x="52" y="36" width="4" height="4" stroke="orange" fill="none" stroke-width="0.5" />
  <text x="53.5" y="38.5" font-size="2" stroke-width="0.5" fill="red">123</text>
  <rect x="56" y="28" width="4" height="4" stroke="orange" fill="none" stroke-width="0.5" />
  <text x="57.5" y="30.5" font-size="2" stroke-width="0.5" fill="red">124</text>
  <rect x="52" y="28" width="4" height="4" stroke="orange" fill="none" stroke-width="0.5" />
  <text x="53.5" y="30.5" font-size="2" stroke-width="0.5" fill="red">125</text>
  <rect x="56" y="24" width="4" height="4" stroke="orange" fill="none" stroke-width="0.5" />
  <text x="57.5" y="26.5" font-size="2" stroke-width="0.5" fill="red">126</text>
  <rect x="52" y="24" width="4" height="4" stroke="orange" fill="none" stroke-width="0.5" />
  <text x="53.5" y="26.5" font-size="2" stroke-width="0.5" fill="red">127</text>
  <rect x="56" y="20" width="4" height="4" stroke="orange" fill="none" stroke-width="0.5" />
  <text x="57.5" y="22.5" font-size="2" stroke-width="0.5" fill="red">128</text>
  <rect x="52" y="20" width="4" height="4" stroke="orange" fill="none" stroke-width="0.5" />
  <text x="53.5" y="22.5" font-size="2" stroke-width="0.5" fill="red">129</text>
  <rect x="56" y="16" width="4" height="4" stroke="orange" fill="none" stroke-width="0.5" />
  <text x="57.5" y="18.5" font-size="2" stroke-width="0.5" fill="red">130</text>
  <rect x="52" y="16" width="4" height="4" stroke="orange" fill="none" stroke-width="0.5" />
  <text x="53.5" y="18.5" font-size="2" stroke-width="0.5" fill="red">131</text>
  <rect x="56" y="12" width="4" height="4" stroke="orange" fill="none" stroke-width="0.5" />
  <text x="57.5" y="14.5" font-size="2" stroke-width="0.5" fill="red">132</text>
  <rect x="52" y="12" width="4" height="4" stroke="orange" fill="none" stroke-width="0.5" />
  <text x="53.5" y="14.5" font-size="2" stroke-width="0.5" fill="red">133</text>
  <rect x="56" y="8" width="4" height="4" stroke="orange" fill="none" stroke-width="0.5" />
  <text x="57.5" y="10.5" font-size="2" stroke-width="0.5" fill="red">134</text>
  <rect x="52" y="8" width="4" height="4" stroke="orange" fill="none" stroke-width="0.5" />
  <text x="53.5" y="10.5" font-size="2" stroke-width="0.5" fill="red">135</text>
  <rect x="48" y="8" width="4" height="4" stroke="orange" fill="none" stroke-width="0.5" />
  <text x="49.5" y="10.5" font-size="2" stroke-width="0.5" fill="red">136</text>
  <rect x="44" y="8" width="4" height="4" stroke="orange" fill="none" stroke-width="0.5" />
  <text x="45.5" y="10.5" font-size="2" stroke-width="0.5" fill="red">137</text>
  <rect x="48" y="12" width="4" height="4" stroke="orange" fill="none" stroke-width="0.5" />
  <text x="49.5" y="14.5" font-size="2" stroke-width="0.5" fill="red">138</text>
  <rect x="44" y="12" width="4" height="4" stroke="orange" fill="none" stroke-width="0.5" />
  <text x="45.5" y="14.5" font-size="2" stroke-width="0.5" fill="red">139</text>
  <rect x="48" y="16" width="4" height="4" stroke="orange" fill="none" stroke-width="0.5" />
  <text x="49.5" y="18.5" font-size="2" stroke-width="0.5" fill="red">140</text>
  <rect x="44" y="16" width="4" height="4" stroke="orange" fill="none" stroke-width="0.5" />
  <text x="45.5" y="18.5" font-size="2" stroke-width="0.5" fill="red">141</text>
  <rect x="48" y="20" width="4" height="4" stroke="orange" fill="none" stroke-width="0.5" />
  <text x="49.5" y="22.5" font-size="2" stroke-width="0.5" fill="red">142</text>
  <rect x="44" y="20" width="4" height="4" stroke="orange" fill="none" stroke-width="0.5" />
  <text x="45.5" y="22.5" font-size="2" stroke-width="0.5" fill="red">143</text>
  <rect x="48" y="24" width="4" height="4" stroke="orange" fill="none" stroke-width="0.5" />
  <text x="49.5" y="26.5" font-size="2" stroke-width="0.5" fill="red">144</text>
  <rect x="44" y="24" width="4" height="4" stroke="orange" fill="none" stroke-width="0.5" />
  <text x="45.5" y="26.5" font-size="2" stroke-width="0.5" fill="red">145</text>
  <rect x="48" y="28" width="4" height="4" stroke="orange" fill="none" stroke-width="0.5" />
  <text x="49.5" y="30.5" font-size="2" stroke-width="0.5" fill="red">146</text>
  <rect x="44" y="28" width="4" height="4" stroke="orange" fill="none" stroke-width="0.5" />
  <text x="45.5" y="30.5" font-size="2" stroke-width="0.5" fill="red">147</text>
  <rect x="48" y="36" width="4" height="4" stroke="orange" fill="none" stroke-width="0.5" />
  <text x="49.5" y="38.5" font-size="2" stroke-width="0.5" fill="red">148</text>
  <rect x="44" y="36" width="4" height="4" stroke="orange" fill="none" stroke-width="0.5" />
  <text x="45.5" y="38.5" font-size="2" stroke-width="0.5" fill="red">149</text>
  <rect x="48" y="40" width="4" height="4" stroke="orange" fill="none" stroke-width="0.5" />
  <text x="49.5" y="42.5" font-size="2" stroke-width="0.5" fill="red">150</text>
  <rect x="44" y="40" width="4" height="4" stroke="orange" fill="none" stroke-width="0.5" />
  <text x="45.5" y="42.5" font-size="2" stroke-width="0.5" fill="red">151</text>
  <rect x="48" y="44" width="4" height="4" stroke="orange" fill="none" stroke-width="0.5" />
  <text x="49.5" y="46.5" font-size="2" stroke-width="0.5" fill="red">152</text>
  <rect x="44" y="44" width="4" height="4" stroke="orange" fill="none" stroke-width="0.5" />
  <text x="45.5" y="46.5" font-size="2" stroke-width="0.5" fill="red">153</text>
  <rect x="48" y="48" width="4" height="4" stroke="orange" fill="none" stroke-width="0.5" />
  <text x="49.5" y="50.5" font-size="2" stroke-width="0.5" fill="red">154</text>
  <rect x="44" y="48" width="4" height="4" stroke="orange" fill="none" stroke-width="0.5" />
  <text x="45.5" y="50.5" font-size="2" stroke-width="0.5" fill="red">155</text>
  <rect x="48" y="52" width="4" height="4" stroke="orange" fill="none" stroke-width="0.5" />
  <text x="49.5" y="54.5" font-size="2" stroke-width="0.5" fill="red">156</text>
  <rect x="44" y="52" width="4" height="4" stroke="orange" fill="none" stroke-width="0.5" />
  <text x="45.5" y="54.5" font-size="2" stroke-width="0.5" fill="red">157</text>
  <rect x="48" y="56" width="4" height="4" stroke="orange" fill="none" stroke-width="0.5" />
  <text x="49.5" y="58.5" font-size="2" stroke-width="0.5" fill="red">158</text>
  <rect x="44" y="56" width="4" height="4" stroke="orange" fill="none" stroke-width="0.5" />
  <text x="45.5" y="58.5" font-size="2" stroke-width="0.5" fill="red">159</text>
  <rect x="48" y="60" width="4" height="4" stroke="orange" fill="none" stroke-width="0.5" />
  <text x="49.5" y="62.5" font-size="2" stroke-width="0.5" fill="red">160</text>
  <rect x="44" y="60" width="4" height="4" stroke="orange" fill="none" stroke-width="0.5" />
  <text x="45.5" y="62.5" font-size="2" stroke-width="0.5" fill="red">161</text>
  <rect x="48" y="64" width="4" height="4" stroke="orange" fill="none" stroke-width="0.5" />
  <text x="49.5" y="66.5" font-size="2" stroke-width="0.5" fill="red">162</text>
  <rect x="44" y="64" width="4" height="4" stroke="orange" fill="none" stroke-width="0.5" />
  <text x="45.5" y="66.5" font-size="2" stroke-width="0.5" fill="red">163</text>
  <rect x="48" y="68" width="4" height="4" stroke="orange" fill="none" stroke-width="0.5" />
  <text x="49.5" y="70.5" font-size="2" stroke-width="0.5" fill="red">164</text>
  <rect x="44" y="68" width="4" height="4" stroke="orange" fill="none" stroke-width="0.5" />
  <text x="45.5" y="70.5" font-size="2" stroke-width="0.5" fill="red">165</text>
  <rect x="48" y="72" width="4" height="4" stroke="orange" fill="none" stroke-width="0.5" />
  <text x="49.5" y="74.5" font-size="2" stroke-width="0.5" fill="red">166</text>
  <rect x="44" y="72" width="4" height="4" stroke="orange" fill="none" stroke-width="0.5" />
  <text x="45.5" y="74.5" font-size="2" stroke-width="0.5" fill="red">167</text>
  <rect x="48" y="76" width="4" height="4" stroke="orange" fill="none" stroke-width="0.5" />
  <text x="49.5" y="78.5" font-size="2" stroke-width="0.5" fill="red">168</text>
  <rect x="44" y="76" width="4" height="4" stroke="orange" fill="none" stroke-width="0.5" />
  <text x="45.5" y="78.5" font-size="2" stroke-width="0.5" fill="red">169</text>
  <rect x="48" y="80" width="4" height="4" stroke="orange" fill="none" stroke-width="0.5" />
  <text x="49.5" y="82.5" font-size="2" stroke-width="0.5" fill="red">170</text>
  <rect x="44" y="80" width="4" height="4" stroke="orange" fill="none" stroke-width="0.5" />
  <text x="45.5" y="82.5" font-size="2" stroke-width="0.5" fill="red">171</text>
  <rect x="48" y="84" width="4" height="4" stroke="orange" fill="none" stroke-width="0.5" />
  <text x="49.5" y="86.5" font-size="2" stroke-width="0.5" fill="red">172</text>
  <rect x="44" y="84" width="4" height="4" stroke="orange" fill="none" stroke-width="0.5" />
  <text x="45.5" y="86.5" font-size="2" stroke-width="0.5" fill="red">173</text>
  <rect x="48" y="88" width="4" height="4" stroke="orange" fill="none" stroke-width="0.5" />
  <text x="49.5" y="90.5" font-size="2" stroke-width="0.5" fill="red">174</text>
  <rect x="44" y="88" width="4" height="4" stroke="orange" fill="none" stroke-width="0.5" />
  <text x="45.5" y="90.5" font-size="2" stroke-width="0.5" fill="red">175</text>
  <rect x="40" y="88" width="4" height="4" stroke="orange" fill="none" stroke-width="0.5" />
  <text x="41.5" y="90.5" font-size="2" stroke-width="0.5" fill="red">176</text>
</svg>