<?xml version="1.0" encoding="utf-8"?>
<svg xmlns="http://www.w3.org/2000/svg" width="100" height="100" style="zoom: 8">
  <rect x="88" y="88" width="4" height="4" stroke="black" fill="none" stroke-width="0.5" />
  <rect x="88" y="84" width="4" height="4" stroke="black" fill="none" stroke-width="0.5" />
  <rect x="84" y="84" width="4" height="4" stroke="black" fill="none" stroke-width="0.5" />
  <rect x="88" y="80" width="4" height="4" stroke="black" fill="none" stroke-width="0.5" />
  <rect x="84" y="80" width="4" height="4" stroke="black" fill="none" stroke-width="0.5" />
  <rect x="88" y="76" width="4" height="4" stroke="black" fill="none" stroke-width="0.5" />
  <rect x="84" y="76" width="4" height="4" stroke="black" fill="none" stroke-width="0.5" />
  <rect x="84" y="72" width="4" height="4" stroke="black" fill="none" stroke-width="0.5" />
  <rect x="88" y="64" width="4" height="4" stroke="black" fill="none" stroke-width="0.5" />
  <rect x="84" y="60" width="4" height="4" stroke="black" fill="none" stroke-width="0.5" />
  <rect x="84" y="56" width="4" height="4" stroke="black" fill="none" stroke-width="0.5" />
  <rect x="88" y="52" width="4" height="4" stroke="black" fill="none" stroke-width="0.5" />
  <rect x="84" y="52" width="4" height="4" stroke="black" fill="none" stroke-width="0.5" />
  <rect x="88" y="48" width="4" height="4" stroke="black" fill="none" stroke-width="0.5" />
  <rect x="84" y="44" width="4" height="4" stroke="black" fill="none" stroke-width="0.5" />
  <rect x="80" y="44" width="4" height="4" stroke="black" fill="none" stroke-width="0.5" />
  <rect x="80" y="48" width="4" height="4" stroke="black" fill="none" stroke-width="0.5" />
  <rect x="80" y="52" width="4" height="4" stroke="black" fill="none" stroke-width="0.5" />
  <rect x="76" y="56" width="4" height="4" stroke="black" fill="none" stroke-width="0.5" />
  <rect x="80" y="64" width="4" height="4" stroke="black" fill="none" stroke-width="0.5" />
  <rect x="76" y="64" width="4" height="4" stroke="black" fill="none" stroke-width="0.5" />
  <rect x="80" y="68" width="4" height="4" stroke="black" fill="none" stroke-width="0.5" />
  <rect x="76" y="72" width="4" height="4" stroke="black" fill="none" stroke-width="0.5" />
  <rect x="80" y="80" width="4" height="4" stroke="black" fill="none" stroke-width="0.5" />
  <rect x="76" y="80" width="4" height="4" stroke="black" fill="none" stroke-width="0.5" />
  <rect x="80" y="84" width="4" height="4" stroke="black" fill="none" stroke-width="0.5" />
  <rect x="76" y="88" width="4" height="4" stroke="black" fill="none" stroke-width="0.5" />
  <rect x="72" y="80" width="4" height="4" stroke="black" fill="none" stroke-width="0.5" />
  <rect x="68" y="80" width="4" height="4" stroke="black" fill="none" stroke-width="0.5" />
  <rect x="68" y="76" width="4" height="4" stroke="black" fill="none" stroke-width="0.5" />
  <rect x="72" y="72" width="4" height="4" stroke="black" fill="none" stroke-width="0.5" />
  <rect x="68" y="72" width="4" height="4" stroke="black" fill="none" stroke-width="0.5" />
  <rect x="72" y="68" width="4" height="4" stroke="black" fill="none" stroke-width="0.5" />
  <rect x="68" y="68" width="4" height="4" stroke="black" fill="none" stroke-width="0.5" />
  <rect x="72" y="64" width="4" height="4" stroke="black" fill="none" stroke-width="0.5" />
  <rect x="72" y="56" width="4" height="4" stroke="black" fill="none" stroke-width="0.5" />
  <rect x="72" y="48" width="4" height="4" stroke="black" fill="none" stroke-width="0.5" />
  <rect x="68" y="44" width="4" height="4" stroke="black" fill="none" stroke-width="0.5" />
  <rect x="64" y="52" width="4" height="4" stroke="black" fill="none" stroke-width="0.5" />
  <rect x="64" y="60" width="4" height="4" stroke="black" fill="none" stroke-width="0.5" />
  <rect x="60" y="60" width="4" height="4" stroke="black" fill="none" stroke-width="0.5" />
  <rect x="60" y="64" width="4" height="4" stroke="black" fill="none" stroke-width="0.5" />
  <rect x="64" y="68" width="4" height="4" stroke="black" fill="none" stroke-width="0.5" />
  <rect x="60" y="72" width="4" height="4" stroke="black" fill="none" stroke-width="0.5" />
  <rect x="64" y="80" width="4" height="4" stroke="black" fill="none" stroke-width="0.5" />
  <rect x="60" y="80" width="4" height="4" stroke="black" fill="none" stroke-width="0.5" />
  <rect x="64" y="84" width="4" height="4" stroke="black" fill="none" stroke-width="0.5" />
  <rect x="60" y="88" width="4" height="4" stroke="black" fill="none" stroke-width="0.5" />
  <rect x="56" y="88" width="4" height="4" stroke="black" fill="none" stroke-width="0.5" />
  <rect x="56" y="84" width="4" height="4" stroke="black" fill="none" stroke-width="0.5" />
  <rect x="52" y="84" width="4" height="4" stroke="black" fill="none" stroke-width="0.5" />
  <rect x="56" y="80" width="4" height="4" stroke="black" fill="none" stroke-width="0.5" />
  <rect x="52" y="80" width="4" height="4" stroke="black" fill="none" stroke-width="0.5" />
  <rect x="56" y="76" width="4" height="4" stroke="black" fill="none" stroke-width="0.5" />
  <rect x="52" y="76" width="4" height="4" stroke="black" fill="none" stroke-width="0.5" />
  <rect x="52" y="68" width="4" height="4" stroke="black" fill="none" stroke-width="0.5" />
  <rect x="56" y="60" width="4" height="4" stroke="black" fill="none" stroke-width="0.5" />
  <rect x="52" y="60" width="4" height="4" stroke="black" fill="none" stroke-width="0.5" />
  <rect x="56" y="56" width="4" height="4" stroke="black" fill="none" stroke-width="0.5" />
  <rect x="52" y="56" width="4" height="4" stroke="black" fill="none" stroke-width="0.5" />
  <rect x="56" y="52" width="4" height="4" stroke="black" fill="none" stroke-width="0.5" />
  <rect x="56" y="48" width="4" height="4" stroke="black" fill="none" stroke-width="0.5" />
  <rect x="52" y="48" width="4" height="4" stroke="black" fill="none" stroke-width="0.5" />
  <rect x="56" y="44" width="4" height="4" stroke="black" fill="none" stroke-width="0.5" />
  <rect x="52" y="36" width="4" height="4" stroke="black" fill="none" stroke-width="0.5" />
  <rect x="56" y="24" width="4" height="4" stroke="black" fill="none" stroke-width="0.5" />
  <rect x="52" y="24" width="4" height="4" stroke="black" fill="none" stroke-width="0.5" />
  <rect x="56" y="20" width="4" height="4" stroke="black" fill="none" stroke-width="0.5" />
  <rect x="52" y="20" width="4" height="4" stroke="black" fill="none" stroke-width="0.5" />
  <rect x="52" y="12" width="4" height="4" stroke="black" fill="none" stroke-width="0.5" />
  <rect x="56" y="8" width="4" height="4" stroke="black" fill="none" stroke-width="0.5" />
  <rect x="48" y="8" width="4" height="4" stroke="black" fill="none" stroke-width="0.5" />
  <rect x="44" y="8" width="4" height="4" stroke="black" fill="none" stroke-width="0.5" />
  <rect x="44" y="16" width="4" height="4" stroke="black" fill="none" stroke-width="0.5" />
  <rect x="44" y="20" width="4" height="4" stroke="black" fill="none" stroke-width="0.5" />
  <rect x="48" y="28" width="4" height="4" stroke="black" fill="none" stroke-width="0.5" />
  <rect x="48" y="40" width="4" height="4" stroke="black" fill="none" stroke-width="0.5" />
  <rect x="44" y="40" width="4" height="4" stroke="black" fill="none" stroke-width="0.5" />
  <rect x="48" y="44" width="4" height="4" stroke="black" fill="none" stroke-width="0.5" />
  <rect x="44" y="44" width="4" height="4" stroke="black" fill="none" stroke-width="0.5" />
  <rect x="44" y="48" width="4" height="4" stroke="black" fill="none" stroke-width="0.5" />
  <rect x="48" y="52" width="4" height="4" stroke="black" fill="none" stroke-width="0.5" />
  <rect x="44" y="52" width="4" height="4" stroke="black" fill="none" stroke-width="0.5" />
  <rect x="48" y="56" width="4" height="4" stroke="black" fill="none" stroke-width="0.5" />
  <rect x="44" y="56" width="4" height="4" stroke="black" fill="none" stroke-width="0.5" />
  <rect x="48" y="64" width="4" height="4" stroke="black" fill="none" stroke-width="0.5" />
  <rect x="48" y="68" width="4" height="4" stroke="black" fill="none" stroke-width="0.5" />
  <rect x="48" y="72" width="4" height="4" stroke="black" fill="none" stroke-width="0.5" />
  <rect x="48" y="76" width="4" height="4" stroke="black" fill="none" stroke-width="0.5" />
  <rect x="44" y="76" width="4" height="4" stroke="black" fill="none" stroke-width="0.5" />
  <rect x="48" y="80" width="4" height="4" stroke="black" fill="none" stroke-width="0.5" />
  <rect x="44" y="80" width="4" height="4" stroke="black" fill="none" stroke-width="0.5" />
  <rect x="44" y="84" width="4" height="4" stroke="black" fill="none" stroke-width="0.5" />
  <rect x="48" y="88" width="4" height="4" stroke="black" fill="none" stroke-width="0.5" />
  <rect x="44" y="88" width="4" height="4" stroke="black" fill="none" stroke-width="0.5" />
</svg>