<?xml version="1.0" encoding="utf-8"?>
<svg xmlns="http://www.w3.org/2000/svg" width="100" height="100" style="zoom: 8">
  <rect x="8" y="8" width="84" height="84" stroke="gray" fill="none" stroke-width="0.5" />
  <rect x="84" y="88" width="4" height="4" stroke="black" fill="black" stroke-width="0.5" />
  <rect x="88" y="72" width="4" height="4" stroke="black" fill="black" stroke-width="0.5" />
  <rect x="88" y="68" width="4" height="4" stroke="black" fill="black" stroke-width="0.5" />
  <rect x="84" y="68" width="4" height="4" stroke="black" fill="black" stroke-width="0.5" />
  <rect x="84" y="64" width="4" height="4" stroke="black" fill="black" stroke-width="0.5" />
  <rect x="88" y="60" width="4" height="4" stroke="black" fill="black" stroke-width="0.5" />
  <rect x="88" y="56" width="4" height="4" stroke="black" fill="black" stroke-width="0.5" />
  <rect x="84" y="48" width="4" height="4" stroke="black" fill="black" stroke-width="0.5" />
  <rect x="88" y="44" width="4" height="4" stroke="black" fill="black" stroke-width="0.5" />
  <rect x="76" y="44" width="4" height="4" stroke="black" fill="black" stroke-width="0.5" />
  <rect x="76" y="48" width="4" height="4" stroke="black" fill="black" stroke-width="0.5" />
  <rect x="76" y="52" width="4" height="4" stroke="black" fill="black" stroke-width="0.5" />
  <rect x="80" y="56" width="4" height="4" stroke="black" fill="black" stroke-width="0.5" />
  <rect x="80" y="60" width="4" height="4" stroke="black" fill="black" stroke-width="0.5" />
  <rect x="76" y="60" width="4" height="4" stroke="black" fill="black" stroke-width="0.5" />
  <rect x="76" y="68" width="4" height="4" stroke="black" fill="black" stroke-width="0.5" />
  <rect x="80" y="72" width="4" height="4" stroke="black" fill="black" stroke-width="0.5" />
  <rect x="80" y="76" width="4" height="4" stroke="black" fill="black" stroke-width="0.5" />
  <rect x="76" y="76" width="4" height="4" stroke="black" fill="black" stroke-width="0.5" />
  <rect x="76" y="84" width="4" height="4" stroke="black" fill="black" stroke-width="0.5" />
  <rect x="80" y="88" width="4" height="4" stroke="black" fill="black" stroke-width="0.5" />
  <rect x="72" y="88" width="4" height="4" stroke="black" fill="black" stroke-width="0.5" />
  <rect x="68" y="88" width="4" height="4" stroke="black" fill="black" stroke-width="0.5" />
  <rect x="72" y="84" width="4" height="4" stroke="black" fill="black" stroke-width="0.5" />
  <rect x="68" y="84" width="4" height="4" stroke="black" fill="black" stroke-width="0.5" />
  <rect x="72" y="76" width="4" height="4" stroke="black" fill="black" stroke-width="0.5" />
  <rect x="68" y="64" width="4" height="4" stroke="black" fill="black" stroke-width="0.5" />
  <rect x="72" y="60" width="4" height="4" stroke="black" fill="black" stroke-width="0.5" />
  <rect x="68" y="60" width="4" height="4" stroke="black" fill="black" stroke-width="0.5" />
  <rect x="68" y="56" width="4" height="4" stroke="black" fill="black" stroke-width="0.5" />
  <rect x="72" y="52" width="4" height="4" stroke="black" fill="black" stroke-width="0.5" />
  <rect x="68" y="52" width="4" height="4" stroke="black" fill="black" stroke-width="0.5" />
  <rect x="68" y="48" width="4" height="4" stroke="black" fill="black" stroke-width="0.5" />
  <rect x="72" y="44" width="4" height="4" stroke="black" fill="black" stroke-width="0.5" />
  <rect x="64" y="44" width="4" height="4" stroke="black" fill="black" stroke-width="0.5" />
  <rect x="60" y="44" width="4" height="4" stroke="black" fill="black" stroke-width="0.5" />
  <rect x="64" y="48" width="4" height="4" stroke="black" fill="black" stroke-width="0.5" />
  <rect x="60" y="48" width="4" height="4" stroke="black" fill="black" stroke-width="0.5" />
  <rect x="60" y="52" width="4" height="4" stroke="black" fill="black" stroke-width="0.5" />
  <rect x="64" y="56" width="4" height="4" stroke="black" fill="black" stroke-width="0.5" />
  <rect x="60" y="56" width="4" height="4" stroke="black" fill="black" stroke-width="0.5" />
  <rect x="64" y="64" width="4" height="4" stroke="black" fill="black" stroke-width="0.5" />
  <rect x="60" y="68" width="4" height="4" stroke="black" fill="black" stroke-width="0.5" />
  <rect x="64" y="72" width="4" height="4" stroke="black" fill="black" stroke-width="0.5" />
  <rect x="64" y="76" width="4" height="4" stroke="black" fill="black" stroke-width="0.5" />
  <rect x="60" y="76" width="4" height="4" stroke="black" fill="black" stroke-width="0.5" />
  <rect x="60" y="84" width="4" height="4" stroke="black" fill="black" stroke-width="0.5" />
  <rect x="64" y="88" width="4" height="4" stroke="black" fill="black" stroke-width="0.5" />
  <rect x="52" y="88" width="4" height="4" stroke="black" fill="black" stroke-width="0.5" />
</svg>