<?xml version="1.0" encoding="utf-8"?>
<svg xmlns="http://www.w3.org/2000/svg" width="353" height="348" style="zoom: 2">
  <rect x="18" y="17" width="313.5" height="314" stroke="gray" fill="none" stroke-width="1.765" />
  <rect x="306.41998" y="305.88" width="12.540009" height="12.559998" stroke="black" fill="black" stroke-width="1.765" />
  <rect x="318.95996" y="268.2" width="12.540009" height="12.559998" stroke="black" fill="black" stroke-width="1.765" />
  <rect x="318.95996" y="255.64001" width="12.540009" height="12.559998" stroke="black" fill="black" stroke-width="1.765" />
  <rect x="306.41998" y="255.64001" width="12.540009" height="12.559998" stroke="black" fill="black" stroke-width="1.765" />
  <rect x="318.95996" y="243.08" width="12.540009" height="12.559998" stroke="black" fill="black" stroke-width="1.765" />
  <rect x="306.41998" y="243.08" width="12.540009" height="12.559998" stroke="black" fill="black" stroke-width="1.765" />
  <rect x="306.41998" y="230.52" width="12.540009" height="12.559998" stroke="black" fill="black" stroke-width="1.765" />
  <rect x="318.95996" y="205.40001" width="12.540009" height="12.559998" stroke="black" fill="black" stroke-width="1.765" />
  <rect x="306.41998" y="205.40001" width="12.540009" height="12.559998" stroke="black" fill="black" stroke-width="1.765" />
  <rect x="318.95996" y="192.84001" width="12.540009" height="12.559998" stroke="black" fill="black" stroke-width="1.765" />
  <rect x="318.95996" y="180.28" width="12.540009" height="12.559998" stroke="black" fill="black" stroke-width="1.765" />
  <rect x="318.95996" y="155.16" width="12.540009" height="12.559998" stroke="black" fill="black" stroke-width="1.765" />
  <rect x="306.41998" y="142.6" width="12.540009" height="12.559998" stroke="black" fill="black" stroke-width="1.765" />
  <rect x="318.95996" y="130.04001" width="12.540009" height="12.559998" stroke="black" fill="black" stroke-width="1.765" />
  <rect x="306.41998" y="130.04001" width="12.540009" height="12.559998" stroke="black" fill="black" stroke-width="1.765" />
  <rect x="293.88" y="130.04001" width="12.540009" height="12.559998" stroke="black" fill="black" stroke-width="1.765" />
  <rect x="281.33997" y="130.04001" width="12.540009" height="12.559998" stroke="black" fill="black" stroke-width="1.765" />
  <rect x="281.33997" y="142.6" width="12.540009" height="12.559998" stroke="black" fill="black" stroke-width="1.765" />
  <rect x="293.88" y="180.28" width="12.540009" height="12.559998" stroke="black" fill="black" stroke-width="1.765" />
  <rect x="281.33997" y="192.84001" width="12.540009" height="12.559998" stroke="black" fill="black" stroke-width="1.765" />
  <rect x="281.33997" y="205.40001" width="12.540009" height="12.559998" stroke="black" fill="black" stroke-width="1.765" />
  <rect x="281.33997" y="217.96" width="12.540009" height="12.559998" stroke="black" fill="black" stroke-width="1.765" />
  <rect x="293.88" y="230.52" width="12.540009" height="12.559998" stroke="black" fill="black" stroke-width="1.765" />
  <rect x="281.33997" y="243.08" width="12.540009" height="12.559998" stroke="black" fill="black" stroke-width="1.765" />
  <rect x="293.88" y="255.64001" width="12.540009" height="12.559998" stroke="black" fill="black" stroke-width="1.765" />
  <rect x="293.88" y="268.2" width="12.540009" height="12.559998" stroke="black" fill="black" stroke-width="1.765" />
  <rect x="281.33997" y="268.2" width="12.540009" height="12.559998" stroke="black" fill="black" stroke-width="1.765" />
  <rect x="293.88" y="280.76" width="12.540009" height="12.559998" stroke="black" fill="black" stroke-width="1.765" />
  <rect x="281.33997" y="280.76" width="12.540009" height="12.559998" stroke="black" fill="black" stroke-width="1.765" />
  <rect x="281.33997" y="293.32" width="12.540009" height="12.559998" stroke="black" fill="black" stroke-width="1.765" />
  <rect x="293.88" y="318.44" width="12.540009" height="12.559998" stroke="black" fill="black" stroke-width="1.765" />
  <rect x="281.33997" y="318.44" width="12.540009" height="12.559998" stroke="black" fill="black" stroke-width="1.765" />
  <rect x="256.26" y="318.44" width="12.540009" height="12.559998" stroke="black" fill="black" stroke-width="1.765" />
  <rect x="256.26" y="305.88" width="12.540009" height="12.559998" stroke="black" fill="black" stroke-width="1.765" />
  <rect x="256.26" y="268.2" width="12.540009" height="12.559998" stroke="black" fill="black" stroke-width="1.765" />
  <rect x="268.8" y="255.64001" width="12.540009" height="12.559998" stroke="black" fill="black" stroke-width="1.765" />
  <rect x="256.26" y="255.64001" width="12.540009" height="12.559998" stroke="black" fill="black" stroke-width="1.765" />
  <rect x="268.8" y="230.52" width="12.540009" height="12.559998" stroke="black" fill="black" stroke-width="1.765" />
  <rect x="256.26" y="230.52" width="12.540009" height="12.559998" stroke="black" fill="black" stroke-width="1.765" />
  <rect x="256.26" y="217.96" width="12.540009" height="12.559998" stroke="black" fill="black" stroke-width="1.765" />
  <rect x="268.8" y="205.40001" width="12.540009" height="12.559998" stroke="black" fill="black" stroke-width="1.765" />
  <rect x="256.26" y="205.40001" width="12.540009" height="12.559998" stroke="black" fill="black" stroke-width="1.765" />
  <rect x="268.8" y="192.84001" width="12.540009" height="12.559998" stroke="black" fill="black" stroke-width="1.765" />
  <rect x="256.26" y="192.84001" width="12.540009" height="12.559998" stroke="black" fill="black" stroke-width="1.765" />
  <rect x="256.26" y="180.28" width="12.540009" height="12.559998" stroke="black" fill="black" stroke-width="1.765" />
  <rect x="268.8" y="155.16" width="12.540009" height="12.559998" stroke="black" fill="black" stroke-width="1.765" />
  <rect x="256.26" y="155.16" width="12.540009" height="12.559998" stroke="black" fill="black" stroke-width="1.765" />
  <rect x="268.8" y="142.6" width="12.540009" height="12.559998" stroke="black" fill="black" stroke-width="1.765" />
  <rect x="256.26" y="130.04001" width="12.540009" height="12.559998" stroke="black" fill="black" stroke-width="1.765" />
  <rect x="243.72" y="155.16" width="12.540009" height="12.559998" stroke="black" fill="black" stroke-width="1.765" />
  <rect x="231.18" y="180.28" width="12.539993" height="12.559998" stroke="black" fill="black" stroke-width="1.765" />
  <rect x="231.18" y="192.84001" width="12.539993" height="12.559998" stroke="black" fill="black" stroke-width="1.765" />
  <rect x="231.18" y="205.40001" width="12.539993" height="12.559998" stroke="black" fill="black" stroke-width="1.765" />
  <rect x="231.18" y="217.96" width="12.539993" height="12.559998" stroke="black" fill="black" stroke-width="1.765" />
  <rect x="231.18" y="230.52" width="12.539993" height="12.559998" stroke="black" fill="black" stroke-width="1.765" />
  <rect x="231.18" y="255.64001" width="12.539993" height="12.559998" stroke="black" fill="black" stroke-width="1.765" />
  <rect x="231.18" y="268.2" width="12.539993" height="12.559998" stroke="black" fill="black" stroke-width="1.765" />
  <rect x="243.72" y="293.32" width="12.540009" height="12.559998" stroke="black" fill="black" stroke-width="1.765" />
  <rect x="231.18" y="305.88" width="12.539993" height="12.559998" stroke="black" fill="black" stroke-width="1.765" />
  <rect x="231.18" y="318.44" width="12.539993" height="12.559998" stroke="black" fill="black" stroke-width="1.765" />
  <rect x="206.1" y="305.88" width="12.539993" height="12.559998" stroke="black" fill="black" stroke-width="1.765" />
  <rect x="218.64001" y="293.32" width="12.539993" height="12.559998" stroke="black" fill="black" stroke-width="1.765" />
  <rect x="206.1" y="293.32" width="12.539993" height="12.559998" stroke="black" fill="black" stroke-width="1.765" />
  <rect x="218.64001" y="280.76" width="12.539993" height="12.559998" stroke="black" fill="black" stroke-width="1.765" />
  <rect x="206.1" y="280.76" width="12.539993" height="12.559998" stroke="black" fill="black" stroke-width="1.765" />
  <rect x="206.1" y="268.2" width="12.539993" height="12.559998" stroke="black" fill="black" stroke-width="1.765" />
  <rect x="218.64001" y="255.64001" width="12.539993" height="12.559998" stroke="black" fill="black" stroke-width="1.765" />
  <rect x="206.1" y="243.08" width="12.539993" height="12.559998" stroke="black" fill="black" stroke-width="1.765" />
  <rect x="218.64001" y="230.52" width="12.539993" height="12.559998" stroke="black" fill="black" stroke-width="1.765" />
  <rect x="206.1" y="230.52" width="12.539993" height="12.559998" stroke="black" fill="black" stroke-width="1.765" />
  <rect x="218.64001" y="205.40001" width="12.539993" height="12.559998" stroke="black" fill="black" stroke-width="1.765" />
  <rect x="206.1" y="205.40001" width="12.539993" height="12.559998" stroke="black" fill="black" stroke-width="1.765" />
  <rect x="218.64001" y="180.28" width="12.539993" height="12.559998" stroke="black" fill="black" stroke-width="1.765" />
  <rect x="206.1" y="167.72" width="12.539993" height="12.559998" stroke="black" fill="black" stroke-width="1.765" />
  <rect x="218.64001" y="117.48001" width="12.539993" height="12.560005" stroke="black" fill="black" stroke-width="1.765" />
  <rect x="206.1" y="117.48001" width="12.539993" height="12.560005" stroke="black" fill="black" stroke-width="1.765" />
  <rect x="206.1" y="104.920006" width="12.539993" height="12.559998" stroke="black" fill="black" stroke-width="1.765" />
  <rect x="206.1" y="67.240005" width="12.539993" height="12.559998" stroke="black" fill="black" stroke-width="1.765" />
  <rect x="218.64001" y="54.68" width="12.539993" height="12.559998" stroke="black" fill="black" stroke-width="1.765" />
  <rect x="206.1" y="54.68" width="12.539993" height="12.559998" stroke="black" fill="black" stroke-width="1.765" />
  <rect x="206.1" y="42.120003" width="12.539993" height="12.560001" stroke="black" fill="black" stroke-width="1.765" />
  <rect x="218.64001" y="29.560003" width="12.539993" height="12.560001" stroke="black" fill="black" stroke-width="1.765" />
  <rect x="206.1" y="17" width="12.539993" height="12.560001" stroke="black" fill="black" stroke-width="1.765" />
  <rect x="193.56" y="17" width="12.539993" height="12.560001" stroke="black" fill="black" stroke-width="1.765" />
  <rect x="181.02002" y="29.560003" width="12.539993" height="12.560001" stroke="black" fill="black" stroke-width="1.765" />
  <rect x="193.56" y="42.120003" width="12.539993" height="12.560001" stroke="black" fill="black" stroke-width="1.765" />
  <rect x="181.02002" y="42.120003" width="12.539993" height="12.560001" stroke="black" fill="black" stroke-width="1.765" />
  <rect x="181.02002" y="54.68" width="12.539993" height="12.559998" stroke="black" fill="black" stroke-width="1.765" />
  <rect x="181.02002" y="67.240005" width="12.539993" height="12.559998" stroke="black" fill="black" stroke-width="1.765" />
  <rect x="181.02002" y="79.8" width="12.539993" height="12.559998" stroke="black" fill="black" stroke-width="1.765" />
  <rect x="193.56" y="104.920006" width="12.539993" height="12.559998" stroke="black" fill="black" stroke-width="1.765" />
  <rect x="181.02002" y="104.920006" width="12.539993" height="12.559998" stroke="black" fill="black" stroke-width="1.765" />
  <rect x="181.02002" y="117.48001" width="12.539993" height="12.560005" stroke="black" fill="black" stroke-width="1.765" />
  <rect x="193.56" y="130.04001" width="12.539993" height="12.559998" stroke="black" fill="black" stroke-width="1.765" />
  <rect x="181.02002" y="130.04001" width="12.539993" height="12.559998" stroke="black" fill="black" stroke-width="1.765" />
  <rect x="181.02002" y="142.6" width="12.539993" height="12.559998" stroke="black" fill="black" stroke-width="1.765" />
  <rect x="181.02002" y="180.28" width="12.539993" height="12.559998" stroke="black" fill="black" stroke-width="1.765" />
  <rect x="181.02002" y="192.84001" width="12.539993" height="12.559998" stroke="black" fill="black" stroke-width="1.765" />
  <rect x="181.02002" y="205.40001" width="12.539993" height="12.559998" stroke="black" fill="black" stroke-width="1.765" />
  <rect x="193.56" y="217.96" width="12.539993" height="12.559998" stroke="black" fill="black" stroke-width="1.765" />
  <rect x="193.56" y="230.52" width="12.539993" height="12.559998" stroke="black" fill="black" stroke-width="1.765" />
  <rect x="181.02002" y="243.08" width="12.539993" height="12.559998" stroke="black" fill="black" stroke-width="1.765" />
  <rect x="193.56" y="255.64001" width="12.539993" height="12.559998" stroke="black" fill="black" stroke-width="1.765" />
  <rect x="193.56" y="268.2" width="12.539993" height="12.559998" stroke="black" fill="black" stroke-width="1.765" />
  <rect x="181.02002" y="268.2" width="12.539993" height="12.559998" stroke="black" fill="black" stroke-width="1.765" />
  <rect x="193.56" y="293.32" width="12.539993" height="12.559998" stroke="black" fill="black" stroke-width="1.765" />
  <rect x="193.56" y="318.44" width="12.539993" height="12.559998" stroke="black" fill="black" stroke-width="1.765" />
  <rect x="181.02002" y="318.44" width="12.539993" height="12.559998" stroke="black" fill="black" stroke-width="1.765" />
  <rect x="168.48001" y="318.44" width="12.539993" height="12.559998" stroke="black" fill="black" stroke-width="1.765" />
  <rect x="155.94" y="305.88" width="12.539993" height="12.559998" stroke="black" fill="black" stroke-width="1.765" />
  <rect x="155.94" y="280.76" width="12.539993" height="12.559998" stroke="black" fill="black" stroke-width="1.765" />
  <rect x="168.48001" y="268.2" width="12.539993" height="12.559998" stroke="black" fill="black" stroke-width="1.765" />
  <rect x="155.94" y="268.2" width="12.539993" height="12.559998" stroke="black" fill="black" stroke-width="1.765" />
  <rect x="155.94" y="255.64001" width="12.539993" height="12.559998" stroke="black" fill="black" stroke-width="1.765" />
  <rect x="168.48001" y="230.52" width="12.539993" height="12.559998" stroke="black" fill="black" stroke-width="1.765" />
  <rect x="155.94" y="230.52" width="12.539993" height="12.559998" stroke="black" fill="black" stroke-width="1.765" />
  <rect x="155.94" y="217.96" width="12.539993" height="12.559998" stroke="black" fill="black" stroke-width="1.765" />
  <rect x="168.48001" y="205.40001" width="12.539993" height="12.559998" stroke="black" fill="black" stroke-width="1.765" />
  <rect x="155.94" y="205.40001" width="12.539993" height="12.559998" stroke="black" fill="black" stroke-width="1.765" />
  <rect x="168.48001" y="192.84001" width="12.539993" height="12.559998" stroke="black" fill="black" stroke-width="1.765" />
  <rect x="155.94" y="192.84001" width="12.539993" height="12.559998" stroke="black" fill="black" stroke-width="1.765" />
  <rect x="168.48001" y="142.6" width="12.539993" height="12.559998" stroke="black" fill="black" stroke-width="1.765" />
  <rect x="168.48001" y="130.04001" width="12.539993" height="12.559998" stroke="black" fill="black" stroke-width="1.765" />
  <rect x="155.94" y="130.04001" width="12.539993" height="12.559998" stroke="black" fill="black" stroke-width="1.765" />
  <rect x="155.94" y="79.8" width="12.539993" height="12.559998" stroke="black" fill="black" stroke-width="1.765" />
  <rect x="143.4" y="67.240005" width="12.539993" height="12.559998" stroke="black" fill="black" stroke-width="1.765" />
  <rect x="143.4" y="79.8" width="12.539993" height="12.559998" stroke="black" fill="black" stroke-width="1.765" />
  <rect x="130.86002" y="79.8" width="12.539993" height="12.559998" stroke="black" fill="black" stroke-width="1.765" />
  <rect x="143.4" y="167.72" width="12.539993" height="12.559998" stroke="black" fill="black" stroke-width="1.765" />
  <rect x="130.86002" y="167.72" width="12.539993" height="12.559998" stroke="black" fill="black" stroke-width="1.765" />
  <rect x="143.4" y="180.28" width="12.539993" height="12.559998" stroke="black" fill="black" stroke-width="1.765" />
  <rect x="143.4" y="192.84001" width="12.539993" height="12.559998" stroke="black" fill="black" stroke-width="1.765" />
  <rect x="130.86002" y="205.40001" width="12.539993" height="12.559998" stroke="black" fill="black" stroke-width="1.765" />
  <rect x="130.86002" y="217.96" width="12.539993" height="12.559998" stroke="black" fill="black" stroke-width="1.765" />
  <rect x="143.4" y="230.52" width="12.539993" height="12.559998" stroke="black" fill="black" stroke-width="1.765" />
  <rect x="130.86002" y="230.52" width="12.539993" height="12.559998" stroke="black" fill="black" stroke-width="1.765" />
  <rect x="143.4" y="243.08" width="12.539993" height="12.559998" stroke="black" fill="black" stroke-width="1.765" />
  <rect x="130.86002" y="243.08" width="12.539993" height="12.559998" stroke="black" fill="black" stroke-width="1.765" />
  <rect x="130.86002" y="255.64001" width="12.539993" height="12.559998" stroke="black" fill="black" stroke-width="1.765" />
  <rect x="143.4" y="268.2" width="12.539993" height="12.559998" stroke="black" fill="black" stroke-width="1.765" />
  <rect x="130.86002" y="268.2" width="12.539993" height="12.559998" stroke="black" fill="black" stroke-width="1.765" />
  <rect x="143.4" y="305.88" width="12.539993" height="12.559998" stroke="black" fill="black" stroke-width="1.765" />
  <rect x="130.86002" y="318.44" width="12.539993" height="12.559998" stroke="black" fill="black" stroke-width="1.765" />
  <rect x="118.31999" y="318.44" width="12.540001" height="12.559998" stroke="black" fill="black" stroke-width="1.765" />
</svg>