<?xml version="1.0" encoding="utf-8"?>
<svg xmlns="http://www.w3.org/2000/svg" width="353" height="348" style="zoom: 2">
  <rect x="17.75" y="17.25" width="314" height="313.5" stroke="gray" fill="none" stroke-width="1.765" />
  <rect x="305.25" y="304.75" width="12.5" height="12.5" stroke="black" fill="black" stroke-width="1.765" />
  <rect x="317.75" y="267.25" width="12.5" height="12.5" stroke="black" fill="black" stroke-width="1.765" />
  <rect x="317.75" y="254.75" width="12.5" height="12.5" stroke="black" fill="black" stroke-width="1.765" />
  <rect x="305.25" y="254.75" width="12.5" height="12.5" stroke="black" fill="black" stroke-width="1.765" />
  <rect x="317.75" y="242.25" width="12.5" height="12.5" stroke="black" fill="black" stroke-width="1.765" />
  <rect x="305.25" y="242.25" width="12.5" height="12.5" stroke="black" fill="black" stroke-width="1.765" />
  <rect x="305.25" y="229.75" width="12.5" height="12.5" stroke="black" fill="black" stroke-width="1.765" />
  <rect x="317.75" y="204.75" width="12.5" height="12.5" stroke="black" fill="black" stroke-width="1.765" />
  <rect x="305.25" y="204.75" width="12.5" height="12.5" stroke="black" fill="black" stroke-width="1.765" />
  <rect x="317.75" y="192.25" width="12.5" height="12.5" stroke="black" fill="black" stroke-width="1.765" />
  <rect x="317.75" y="179.75" width="12.5" height="12.5" stroke="black" fill="black" stroke-width="1.765" />
  <rect x="317.75" y="154.75" width="12.5" height="12.5" stroke="black" fill="black" stroke-width="1.765" />
  <rect x="305.25" y="142.25" width="12.5" height="12.5" stroke="black" fill="black" stroke-width="1.765" />
  <rect x="317.75" y="129.75" width="12.5" height="12.5" stroke="black" fill="black" stroke-width="1.765" />
  <rect x="305.25" y="129.75" width="12.5" height="12.5" stroke="black" fill="black" stroke-width="1.765" />
  <rect x="292.75" y="129.75" width="12.5" height="12.5" stroke="black" fill="black" stroke-width="1.765" />
  <rect x="280.25" y="129.75" width="12.5" height="12.5" stroke="black" fill="black" stroke-width="1.765" />
  <rect x="280.25" y="142.25" width="12.5" height="12.5" stroke="black" fill="black" stroke-width="1.765" />
  <rect x="292.75" y="179.75" width="12.5" height="12.5" stroke="black" fill="black" stroke-width="1.765" />
  <rect x="280.25" y="192.25" width="12.5" height="12.5" stroke="black" fill="black" stroke-width="1.765" />
  <rect x="280.25" y="204.75" width="12.5" height="12.5" stroke="black" fill="black" stroke-width="1.765" />
  <rect x="280.25" y="217.25" width="12.5" height="12.5" stroke="black" fill="black" stroke-width="1.765" />
  <rect x="292.75" y="229.75" width="12.5" height="12.5" stroke="black" fill="black" stroke-width="1.765" />
  <rect x="280.25" y="242.25" width="12.5" height="12.5" stroke="black" fill="black" stroke-width="1.765" />
  <rect x="292.75" y="254.75" width="12.5" height="12.5" stroke="black" fill="black" stroke-width="1.765" />
  <rect x="292.75" y="267.25" width="12.5" height="12.5" stroke="black" fill="black" stroke-width="1.765" />
  <rect x="280.25" y="267.25" width="12.5" height="12.5" stroke="black" fill="black" stroke-width="1.765" />
  <rect x="292.75" y="279.75" width="12.5" height="12.5" stroke="black" fill="black" stroke-width="1.765" />
  <rect x="280.25" y="279.75" width="12.5" height="12.5" stroke="black" fill="black" stroke-width="1.765" />
  <rect x="280.25" y="292.25" width="12.5" height="12.5" stroke="black" fill="black" stroke-width="1.765" />
  <rect x="292.75" y="317.25" width="12.5" height="12.5" stroke="black" fill="black" stroke-width="1.765" />
  <rect x="280.25" y="317.25" width="12.5" height="12.5" stroke="black" fill="black" stroke-width="1.765" />
  <rect x="255.25" y="317.25" width="12.5" height="12.5" stroke="black" fill="black" stroke-width="1.765" />
  <rect x="255.25" y="304.75" width="12.5" height="12.5" stroke="black" fill="black" stroke-width="1.765" />
  <rect x="255.25" y="267.25" width="12.5" height="12.5" stroke="black" fill="black" stroke-width="1.765" />
  <rect x="267.75" y="254.75" width="12.5" height="12.5" stroke="black" fill="black" stroke-width="1.765" />
  <rect x="255.25" y="254.75" width="12.5" height="12.5" stroke="black" fill="black" stroke-width="1.765" />
  <rect x="267.75" y="229.75" width="12.5" height="12.5" stroke="black" fill="black" stroke-width="1.765" />
  <rect x="255.25" y="229.75" width="12.5" height="12.5" stroke="black" fill="black" stroke-width="1.765" />
  <rect x="255.25" y="217.25" width="12.5" height="12.5" stroke="black" fill="black" stroke-width="1.765" />
  <rect x="267.75" y="204.75" width="12.5" height="12.5" stroke="black" fill="black" stroke-width="1.765" />
  <rect x="255.25" y="204.75" width="12.5" height="12.5" stroke="black" fill="black" stroke-width="1.765" />
  <rect x="267.75" y="192.25" width="12.5" height="12.5" stroke="black" fill="black" stroke-width="1.765" />
  <rect x="255.25" y="192.25" width="12.5" height="12.5" stroke="black" fill="black" stroke-width="1.765" />
  <rect x="255.25" y="179.75" width="12.5" height="12.5" stroke="black" fill="black" stroke-width="1.765" />
  <rect x="267.75" y="154.75" width="12.5" height="12.5" stroke="black" fill="black" stroke-width="1.765" />
  <rect x="255.25" y="154.75" width="12.5" height="12.5" stroke="black" fill="black" stroke-width="1.765" />
  <rect x="267.75" y="142.25" width="12.5" height="12.5" stroke="black" fill="black" stroke-width="1.765" />
  <rect x="255.25" y="129.75" width="12.5" height="12.5" stroke="black" fill="black" stroke-width="1.765" />
  <rect x="242.75" y="154.75" width="12.5" height="12.5" stroke="black" fill="black" stroke-width="1.765" />
  <rect x="230.25" y="179.75" width="12.5" height="12.5" stroke="black" fill="black" stroke-width="1.765" />
  <rect x="230.25" y="192.25" width="12.5" height="12.5" stroke="black" fill="black" stroke-width="1.765" />
  <rect x="230.25" y="204.75" width="12.5" height="12.5" stroke="black" fill="black" stroke-width="1.765" />
  <rect x="230.25" y="217.25" width="12.5" height="12.5" stroke="black" fill="black" stroke-width="1.765" />
  <rect x="230.25" y="229.75" width="12.5" height="12.5" stroke="black" fill="black" stroke-width="1.765" />
  <rect x="230.25" y="254.75" width="12.5" height="12.5" stroke="black" fill="black" stroke-width="1.765" />
  <rect x="230.25" y="267.25" width="12.5" height="12.5" stroke="black" fill="black" stroke-width="1.765" />
  <rect x="242.75" y="292.25" width="12.5" height="12.5" stroke="black" fill="black" stroke-width="1.765" />
  <rect x="230.25" y="304.75" width="12.5" height="12.5" stroke="black" fill="black" stroke-width="1.765" />
  <rect x="230.25" y="317.25" width="12.5" height="12.5" stroke="black" fill="black" stroke-width="1.765" />
  <rect x="205.25" y="304.75" width="12.5" height="12.5" stroke="black" fill="black" stroke-width="1.765" />
  <rect x="217.75" y="292.25" width="12.5" height="12.5" stroke="black" fill="black" stroke-width="1.765" />
  <rect x="205.25" y="292.25" width="12.5" height="12.5" stroke="black" fill="black" stroke-width="1.765" />
  <rect x="217.75" y="279.75" width="12.5" height="12.5" stroke="black" fill="black" stroke-width="1.765" />
  <rect x="205.25" y="279.75" width="12.5" height="12.5" stroke="black" fill="black" stroke-width="1.765" />
  <rect x="205.25" y="267.25" width="12.5" height="12.5" stroke="black" fill="black" stroke-width="1.765" />
  <rect x="217.75" y="254.75" width="12.5" height="12.5" stroke="black" fill="black" stroke-width="1.765" />
  <rect x="205.25" y="242.25" width="12.5" height="12.5" stroke="black" fill="black" stroke-width="1.765" />
  <rect x="217.75" y="229.75" width="12.5" height="12.5" stroke="black" fill="black" stroke-width="1.765" />
  <rect x="205.25" y="229.75" width="12.5" height="12.5" stroke="black" fill="black" stroke-width="1.765" />
  <rect x="217.75" y="204.75" width="12.5" height="12.5" stroke="black" fill="black" stroke-width="1.765" />
  <rect x="205.25" y="204.75" width="12.5" height="12.5" stroke="black" fill="black" stroke-width="1.765" />
  <rect x="217.75" y="179.75" width="12.5" height="12.5" stroke="black" fill="black" stroke-width="1.765" />
  <rect x="205.25" y="167.25" width="12.5" height="12.5" stroke="black" fill="black" stroke-width="1.765" />
  <rect x="217.75" y="117.25" width="12.5" height="12.5" stroke="black" fill="black" stroke-width="1.765" />
  <rect x="205.25" y="117.25" width="12.5" height="12.5" stroke="black" fill="black" stroke-width="1.765" />
  <rect x="205.25" y="104.75" width="12.5" height="12.5" stroke="black" fill="black" stroke-width="1.765" />
  <rect x="205.25" y="67.25" width="12.5" height="12.5" stroke="black" fill="black" stroke-width="1.765" />
  <rect x="217.75" y="54.75" width="12.5" height="12.5" stroke="black" fill="black" stroke-width="1.765" />
  <rect x="205.25" y="54.75" width="12.5" height="12.5" stroke="black" fill="black" stroke-width="1.765" />
  <rect x="205.25" y="42.25" width="12.5" height="12.5" stroke="black" fill="black" stroke-width="1.765" />
  <rect x="217.75" y="29.75" width="12.5" height="12.5" stroke="black" fill="black" stroke-width="1.765" />
  <rect x="205.25" y="17.25" width="12.5" height="12.5" stroke="black" fill="black" stroke-width="1.765" />
  <rect x="192.75" y="17.25" width="12.5" height="12.5" stroke="black" fill="black" stroke-width="1.765" />
  <rect x="180.25" y="29.75" width="12.5" height="12.5" stroke="black" fill="black" stroke-width="1.765" />
  <rect x="192.75" y="42.25" width="12.5" height="12.5" stroke="black" fill="black" stroke-width="1.765" />
  <rect x="180.25" y="42.25" width="12.5" height="12.5" stroke="black" fill="black" stroke-width="1.765" />
  <rect x="180.25" y="54.75" width="12.5" height="12.5" stroke="black" fill="black" stroke-width="1.765" />
  <rect x="180.25" y="67.25" width="12.5" height="12.5" stroke="black" fill="black" stroke-width="1.765" />
  <rect x="180.25" y="79.75" width="12.5" height="12.5" stroke="black" fill="black" stroke-width="1.765" />
  <rect x="192.75" y="104.75" width="12.5" height="12.5" stroke="black" fill="black" stroke-width="1.765" />
  <rect x="180.25" y="104.75" width="12.5" height="12.5" stroke="black" fill="black" stroke-width="1.765" />
  <rect x="180.25" y="117.25" width="12.5" height="12.5" stroke="black" fill="black" stroke-width="1.765" />
  <rect x="192.75" y="129.75" width="12.5" height="12.5" stroke="black" fill="black" stroke-width="1.765" />
  <rect x="180.25" y="129.75" width="12.5" height="12.5" stroke="black" fill="black" stroke-width="1.765" />
  <rect x="180.25" y="142.25" width="12.5" height="12.5" stroke="black" fill="black" stroke-width="1.765" />
  <rect x="180.25" y="179.75" width="12.5" height="12.5" stroke="black" fill="black" stroke-width="1.765" />
  <rect x="180.25" y="192.25" width="12.5" height="12.5" stroke="black" fill="black" stroke-width="1.765" />
  <rect x="180.25" y="204.75" width="12.5" height="12.5" stroke="black" fill="black" stroke-width="1.765" />
  <rect x="192.75" y="217.25" width="12.5" height="12.5" stroke="black" fill="black" stroke-width="1.765" />
  <rect x="192.75" y="229.75" width="12.5" height="12.5" stroke="black" fill="black" stroke-width="1.765" />
  <rect x="180.25" y="242.25" width="12.5" height="12.5" stroke="black" fill="black" stroke-width="1.765" />
  <rect x="192.75" y="254.75" width="12.5" height="12.5" stroke="black" fill="black" stroke-width="1.765" />
  <rect x="192.75" y="267.25" width="12.5" height="12.5" stroke="black" fill="black" stroke-width="1.765" />
  <rect x="180.25" y="267.25" width="12.5" height="12.5" stroke="black" fill="black" stroke-width="1.765" />
  <rect x="192.75" y="292.25" width="12.5" height="12.5" stroke="black" fill="black" stroke-width="1.765" />
  <rect x="192.75" y="317.25" width="12.5" height="12.5" stroke="black" fill="black" stroke-width="1.765" />
  <rect x="180.25" y="317.25" width="12.5" height="12.5" stroke="black" fill="black" stroke-width="1.765" />
  <rect x="167.75" y="317.25" width="12.5" height="12.5" stroke="black" fill="black" stroke-width="1.765" />
  <rect x="155.25" y="304.75" width="12.5" height="12.5" stroke="black" fill="black" stroke-width="1.765" />
  <rect x="155.25" y="279.75" width="12.5" height="12.5" stroke="black" fill="black" stroke-width="1.765" />
  <rect x="167.75" y="267.25" width="12.5" height="12.5" stroke="black" fill="black" stroke-width="1.765" />
  <rect x="155.25" y="267.25" width="12.5" height="12.5" stroke="black" fill="black" stroke-width="1.765" />
  <rect x="155.25" y="254.75" width="12.5" height="12.5" stroke="black" fill="black" stroke-width="1.765" />
  <rect x="167.75" y="229.75" width="12.5" height="12.5" stroke="black" fill="black" stroke-width="1.765" />
  <rect x="155.25" y="229.75" width="12.5" height="12.5" stroke="black" fill="black" stroke-width="1.765" />
  <rect x="155.25" y="217.25" width="12.5" height="12.5" stroke="black" fill="black" stroke-width="1.765" />
  <rect x="167.75" y="204.75" width="12.5" height="12.5" stroke="black" fill="black" stroke-width="1.765" />
  <rect x="155.25" y="204.75" width="12.5" height="12.5" stroke="black" fill="black" stroke-width="1.765" />
  <rect x="167.75" y="192.25" width="12.5" height="12.5" stroke="black" fill="black" stroke-width="1.765" />
  <rect x="155.25" y="192.25" width="12.5" height="12.5" stroke="black" fill="black" stroke-width="1.765" />
  <rect x="167.75" y="142.25" width="12.5" height="12.5" stroke="black" fill="black" stroke-width="1.765" />
  <rect x="167.75" y="129.75" width="12.5" height="12.5" stroke="black" fill="black" stroke-width="1.765" />
  <rect x="155.25" y="129.75" width="12.5" height="12.5" stroke="black" fill="black" stroke-width="1.765" />
  <rect x="155.25" y="79.75" width="12.5" height="12.5" stroke="black" fill="black" stroke-width="1.765" />
  <rect x="142.75" y="67.25" width="12.5" height="12.5" stroke="black" fill="black" stroke-width="1.765" />
  <rect x="142.75" y="79.75" width="12.5" height="12.5" stroke="black" fill="black" stroke-width="1.765" />
  <rect x="130.25" y="79.75" width="12.5" height="12.5" stroke="black" fill="black" stroke-width="1.765" />
  <rect x="142.75" y="167.25" width="12.5" height="12.5" stroke="black" fill="black" stroke-width="1.765" />
  <rect x="130.25" y="167.25" width="12.5" height="12.5" stroke="black" fill="black" stroke-width="1.765" />
  <rect x="142.75" y="179.75" width="12.5" height="12.5" stroke="black" fill="black" stroke-width="1.765" />
  <rect x="142.75" y="192.25" width="12.5" height="12.5" stroke="black" fill="black" stroke-width="1.765" />
  <rect x="130.25" y="204.75" width="12.5" height="12.5" stroke="black" fill="black" stroke-width="1.765" />
  <rect x="130.25" y="217.25" width="12.5" height="12.5" stroke="black" fill="black" stroke-width="1.765" />
  <rect x="142.75" y="229.75" width="12.5" height="12.5" stroke="black" fill="black" stroke-width="1.765" />
  <rect x="130.25" y="229.75" width="12.5" height="12.5" stroke="black" fill="black" stroke-width="1.765" />
  <rect x="142.75" y="242.25" width="12.5" height="12.5" stroke="black" fill="black" stroke-width="1.765" />
  <rect x="130.25" y="242.25" width="12.5" height="12.5" stroke="black" fill="black" stroke-width="1.765" />
  <rect x="130.25" y="254.75" width="12.5" height="12.5" stroke="black" fill="black" stroke-width="1.765" />
  <rect x="142.75" y="267.25" width="12.5" height="12.5" stroke="black" fill="black" stroke-width="1.765" />
  <rect x="130.25" y="267.25" width="12.5" height="12.5" stroke="black" fill="black" stroke-width="1.765" />
  <rect x="142.75" y="304.75" width="12.5" height="12.5" stroke="black" fill="black" stroke-width="1.765" />
  <rect x="130.25" y="317.25" width="12.5" height="12.5" stroke="black" fill="black" stroke-width="1.765" />
  <rect x="117.75" y="317.25" width="12.5" height="12.5" stroke="black" fill="black" stroke-width="1.765" />
</svg>